<?xml version="1.0" encoding="utf-8"?>
<!-- Generator: Adobe Illustrator 27.9.0, SVG Export Plug-In . SVG Version: 6.00 Build 0)  -->
<svg version="1.1" id="Layer_1" xmlns="http://www.w3.org/2000/svg" xmlns:xlink="http://www.w3.org/1999/xlink" x="0px" y="0px"
	 viewBox="0 0 535 123" style="enable-background:new 0 0 535 123;" xml:space="preserve">
<style type="text/css">
	.st0{clip-path:url(#SVGID_00000176008866142320970800000014865613900447761555_);}
	.st1{fill:#FFFFFF;filter:url(#Adobe_OpacityMaskFilter);}
	.st2{mask:url(#mask0_3340_1163_00000042720855988093199370000014869477732966287502_);}
	.st3{display:none;fill:#21325B;}
	.st4{fill:#061538;}
	.st5{fill:#979695;}
</style>
<g>
	<defs>
		<rect id="SVGID_1_" width="535" height="123"/>
	</defs>
	<clipPath id="SVGID_00000068659423760647105540000015961562380395584420_">
		<use xlink:href="#SVGID_1_"  style="overflow:visible;"/>
	</clipPath>
	<g style="clip-path:url(#SVGID_00000068659423760647105540000015961562380395584420_);">
		<defs>
			<filter id="Adobe_OpacityMaskFilter" filterUnits="userSpaceOnUse" x="0.5" y="0.7" width="534" height="121.5">
				<feColorMatrix  type="matrix" values="1 0 0 0 0  0 1 0 0 0  0 0 1 0 0  0 0 0 1 0"/>
			</filter>
		</defs>
		
			<mask maskUnits="userSpaceOnUse" x="0.5" y="0.7" width="534" height="121.5" id="mask0_3340_1163_00000042720855988093199370000014869477732966287502_">
			<path class="st1" d="M534.5,0H0v122.1h534.5V0z"/>
		</mask>
		<g class="st2">
			<path class="st3" d="M157.7,39.9v16.8h20.4v6.9h-20.4v17.2h22.8v7.3h-31.7V32.7h31.7V40L157.7,39.9z M211,80.4v7.8h-5.5
				c-4.6,0-8.1-1.1-10.5-3.3c-2.4-2.2-3.6-5.9-3.6-11.1V52.5h-6.2v-7.6h6.2V34.1h9v10.8h10.4v7.6h-10.4v21.3c0,2.5,0.5,4.2,1.4,5.1
				c0.9,0.9,2.5,1.4,4.8,1.4H211z M243.5,44.2c5,0,9.1,1.6,12.1,4.9s4.6,7.9,4.6,13.9v25.2h-8.9V63.9c0-3.9-1-6.9-3-9
				c-1.1-1.1-2.3-1.9-3.7-2.5c-1.4-0.5-2.9-0.8-4.4-0.7c-1.6-0.1-3.2,0.2-4.6,0.8c-1.5,0.6-2.8,1.5-3.9,2.6c-2.1,2.3-3.2,5.6-3.2,10
				v23h-8.9V30.1h8.9v24.3c1-3.1,3.1-5.7,5.8-7.5C236.9,45.1,240.2,44.1,243.5,44.2z M310.8,64.4c0,1.3-0.1,2.6-0.3,3.8h-33.3
				c0.2,4.4,1.4,7.7,3.7,9.9c2.3,2.2,5.4,3.3,8.6,3.2c2.7,0.1,5.4-0.7,7.6-2.3c2-1.4,3.4-3.6,3.8-6h9.6c-0.5,2.9-1.8,5.7-3.6,8.1
				c-1.9,2.4-4.3,4.3-7.1,5.5c-3.1,1.4-6.4,2-9.8,2c-3.9,0.1-7.7-0.8-11.1-2.7c-3.2-1.8-5.8-4.4-7.6-7.7c-1.9-3.7-2.8-7.7-2.7-11.8
				c-0.1-4.1,0.8-8.1,2.7-11.8c1.7-3.2,4.4-5.9,7.6-7.7c3.4-1.8,7.2-2.7,11.1-2.7c3.9-0.1,7.7,0.8,11.1,2.6c3.1,1.7,5.6,4.2,7.3,7.2
				C309.9,57.3,310.8,60.9,310.8,64.4L310.8,64.4z M301.8,64.2c0.2-2.5-0.3-4.9-1.5-7.1c-1-1.8-2.5-3.3-4.4-4.2
				c-1.9-0.9-4-1.4-6.1-1.4c-3.2-0.1-6.4,1.1-8.8,3.2c-2.4,2.1-3.6,5.3-3.8,9.5L301.8,64.2z M328.4,53.4c1.4-2.8,3.6-5.1,6.3-6.7
				c2.8-1.7,6.1-2.5,9.4-2.5v9.7h-2.7c-3.9,0-7.1,1-9.5,2.9c-2.4,1.9-3.6,5.1-3.6,9.5v21.9h-8.9V44.9h8.9L328.4,53.4z M364.9,44.3
				c5.1,0,9.1,1.3,12.2,3.9c3.1,2.7,5.1,6.4,5.6,10.4h-8.5c-0.3-2.2-1.4-4.2-3-5.7c-1.8-1.5-4.2-2.3-6.6-2.2
				c-1.9-0.1-3.7,0.5-5.2,1.6c-0.6,0.5-1.1,1.2-1.4,2c-0.3,0.8-0.5,1.6-0.4,2.4c0,0.6,0.1,1.2,0.3,1.8c0.2,0.6,0.6,1.1,1,1.5
				c1,0.9,2.1,1.5,3.3,2c1.9,0.6,3.8,1.1,5.7,1.6c3.2,0.7,7.9,2.3,7.9,2.3s3.7,2,5.2,3.7c1.5,2,2.3,4.4,2.2,6.9c0,1.7-0.3,3.4-1,4.9
				c-0.7,1.5-1.8,2.9-3.1,3.9c-2.7,2.2-6.4,3.4-11.1,3.4c-5.4,0-9.7-1.3-13.1-3.8c-1.7-1.3-3-2.8-4.1-4.6c-1-1.8-1.7-3.8-1.9-5.9
				h8.7c0.1,1.1,0.4,2.2,1,3.2c0.5,1,1.3,1.8,2.2,2.5c2.1,1.5,4.6,2.3,7.2,2.2c1.8,0.1,3.7-0.5,5.1-1.7c0.6-0.5,1.1-1.2,1.4-1.9
				c0.3-0.7,0.5-1.5,0.4-2.3c0-0.7-0.1-1.3-0.3-2c-0.2-0.6-0.6-1.2-1.1-1.7c-1-0.9-2.2-1.6-3.5-2.1c-1.9-0.6-3.8-1.1-5.8-1.5
				c-2.6-0.6-5.1-1.3-7.7-2.2c-2-0.7-3.7-2-5-3.6c-1.5-1.9-2.2-4.3-2.1-6.7c0-1.7,0.3-3.4,1-4.9c0.7-1.5,1.8-2.9,3.1-4
				C356.3,45.5,360.1,44.3,364.9,44.3L364.9,44.3z M411.4,44.3c5.6,0,10.2,1.5,13.9,4.4c3.7,3,6.1,7.3,6.8,12h-9.5
				c-0.4-2.5-1.8-4.8-3.8-6.4c-2.2-1.6-4.9-2.4-7.6-2.3c-1.6,0-3.2,0.3-4.7,0.9c-1.5,0.6-2.8,1.6-3.9,2.8c-2.3,2.4-3.5,6-3.5,10.7
				c0,4.7,1.2,8.3,3.5,10.8c1.1,1.2,2.4,2.1,3.9,2.8c1.5,0.6,3.1,0.9,4.7,0.9c2.7,0.1,5.4-0.7,7.6-2.3c2-1.6,3.4-3.9,3.8-6.4h9.5
				c-0.7,4.7-3.1,9-6.8,12.1c-3.7,3-8.3,4.5-13.9,4.5c-3.9,0.1-7.7-0.8-11.1-2.7c-3.2-1.8-5.8-4.4-7.6-7.7
				c-1.9-3.7-2.9-7.7-2.8-11.9c-0.1-4.1,0.8-8.1,2.7-11.8c1.7-3.2,4.4-5.9,7.6-7.7C403.7,45.2,407.5,44.3,411.4,44.3L411.4,44.3z
				 M458.1,44.3c3.6-0.1,7.1,0.9,10,2.9c2.7,1.9,4.8,4.6,5.9,7.7v-10h8.9v43.2H474v-10c-1.1,3.1-3.2,5.8-5.9,7.7c-3,2-6.5,3-10,2.9
				c-3.5,0.1-7-0.9-10.1-2.7c-3-1.8-5.4-4.5-6.9-7.7c-1.8-3.7-2.6-7.8-2.5-11.8c-0.1-4.1,0.8-8.1,2.5-11.8c1.5-3.2,3.9-5.9,6.9-7.7
				C451,45.2,454.5,44.3,458.1,44.3L458.1,44.3z M460.8,52.2c-1.8-0.1-3.5,0.2-5.2,0.9c-1.6,0.7-3.1,1.7-4.4,2.9
				c-2.4,2.5-3.6,6-3.6,10.5c0,4.4,1.2,7.9,3.6,10.5c1.2,1.3,2.7,2.3,4.4,2.9c1.6,0.7,3.4,1,5.2,0.9c2.4,0,4.7-0.6,6.7-1.8
				c2-1.2,3.6-2.9,4.7-5c1.2-2.3,1.8-4.9,1.7-7.5c0.1-2.6-0.5-5.2-1.7-7.5c-1.1-2.1-2.7-3.8-4.7-5C465.5,52.8,463.2,52.2,460.8,52.2
				L460.8,52.2z M517.9,44.2c5,0,9.1,1.6,12.1,4.9c3,3.2,4.6,7.9,4.6,13.9v25.2h-8.9V63.9c0-3.9-1-6.9-3-9c-1.1-1.1-2.3-1.9-3.7-2.5
				c-1.4-0.5-2.9-0.8-4.4-0.7c-1.6-0.1-3.2,0.2-4.6,0.8c-1.5,0.6-2.8,1.5-3.9,2.6c-2.1,2.3-3.2,5.6-3.2,10v23h-8.9V44.9h8.9v9.5
				c1-3.1,3.1-5.7,5.8-7.5C511.3,45.1,514.5,44.1,517.9,44.2L517.9,44.2z"/>
			<path class="st4" d="M25.8,58.4c0-0.7,0.1-1.4,0.4-2c0.3-0.6,0.6-1.2,1.1-1.7c0.5-0.5,1.1-0.9,1.7-1.1c0.6-0.3,1.3-0.4,2-0.4
				l8.6,0c1.4,0,2.7,0.5,3.7,1.5c1,1,1.5,2.3,1.5,3.7v32.5c1-0.3,2.2-0.6,3.6-0.9c0.9-0.2,1.8-0.8,2.4-1.5c0.6-0.8,0.9-1.7,0.9-2.7
				V45.5c0-1.4,0.5-2.7,1.5-3.7c1-1,2.3-1.5,3.7-1.5h8.6c1.4,0,2.7,0.5,3.7,1.5s1.5,2.3,1.5,3.7v37.4c0,0,2.2-0.9,4.3-1.8
				c0.8-0.3,1.4-0.9,1.9-1.6c0.5-0.7,0.7-1.5,0.7-2.4V32.6c0-1.4,0.5-2.7,1.5-3.7c1-1,2.3-1.5,3.7-1.5h8.6c1.4,0,2.7,0.5,3.7,1.5
				c1,1,1.5,2.3,1.5,3.7v36.7c7.5-5.4,15-11.9,21-19.7c0.9-1.1,1.4-2.5,1.7-3.9c0.2-1.4,0.1-2.9-0.4-4.2c-2.8-8-7.2-15.3-13-21.5
				C100,13.8,93,8.9,85.2,5.6c-7.8-3.3-16.2-5-24.6-4.9c-8.5,0.1-16.8,2-24.5,5.5c-7.7,3.5-14.6,8.6-20.2,14.9
				C10.2,27.4,6,34.8,3.4,42.9c-2.6,8.1-3.5,16.6-2.6,25s3.5,16.6,7.7,23.9c0.7,1.3,1.8,2.3,3.1,3c1.3,0.7,2.8,1,4.2,0.8
				c1.6-0.1,3.7-0.3,6.1-0.6c1-0.1,2-0.6,2.7-1.4c0.7-0.8,1.1-1.8,1.1-2.9L25.8,58.4z"/>
			<path class="st5" d="M25.6,110.5c9.1,6.6,19.8,10.6,31,11.4c11.2,0.9,22.4-1.3,32.4-6.4c10-5.1,18.4-12.9,24.3-22.4
				c5.9-9.6,9-20.6,9-31.8c0-1.4-0.1-2.8-0.2-4.2C99.8,90.3,58.8,105.8,25.6,110.5"/>
		</g>
	</g>
</g>
<g>
	<path class="st4" d="M171.8,71.4v10c0,12.1-6,19-17.7,19c-11.7,0-17.7-6.9-17.7-19V42.1c0-12.1,6-19,17.7-19
		c11.7,0,17.7,6.9,17.7,19v7.3h-11.2v-8.1c0-5.4-2.4-7.5-6.2-7.5c-3.8,0-6.2,2.1-6.2,7.5v40.8c0,5.4,2.4,7.3,6.2,7.3
		c3.8,0,6.2-1.9,6.2-7.3V71.4H171.8z"/>
	<path class="st4" d="M178,42.1c0-12.1,6.4-19,18-19s18,6.9,18,19v39.3c0,12.1-6.4,19-18,19s-18-6.9-18-19V42.1z M189.9,82.2
		c0,5.4,2.4,7.5,6.2,7.5c3.8,0,6.2-2.1,6.2-7.5V41.4c0-5.4-2.4-7.5-6.2-7.5c-3.8,0-6.2,2.1-6.2,7.5V82.2z"/>
	<path class="st4" d="M232.4,44.8v54.8h-10.7V24h14.9l12.2,45.3V24h10.6v75.6h-12.2L232.4,44.8z"/>
	<path class="st4" d="M279.8,55.9h16.3v10.8h-16.3v22.1h20.5v10.8h-32.4V24h32.4v10.8h-20.5V55.9z"/>
	<path class="st4" d="M304.2,24h36.7v10.8h-12.4v64.8h-11.9V34.8h-12.4V24z"/>
	<path class="st4" d="M362.1,23.1c11.6,0,17.5,6.9,17.5,19v2.4h-11.2v-3.1c0-5.4-2.2-7.5-5.9-7.5c-3.8,0-5.9,2.1-5.9,7.5
		c0,15.6,23.2,18.5,23.2,40.1c0,12.1-6,19-17.7,19s-17.7-6.9-17.7-19v-4.6h11.2v5.4c0,5.4,2.4,7.3,6.2,7.3s6.2-1.9,6.2-7.3
		c0-15.6-23.2-18.5-23.2-40.1C344.6,30,350.5,23.1,362.1,23.1z"/>
	<path class="st4" d="M420.9,71.4v10c0,12.1-6,19-17.7,19s-17.7-6.9-17.7-19V42.1c0-12.1,6-19,17.7-19s17.7,6.9,17.7,19v7.3h-11.2
		v-8.1c0-5.4-2.4-7.5-6.2-7.5c-3.8,0-6.2,2.1-6.2,7.5v40.8c0,5.4,2.4,7.3,6.2,7.3c3.8,0,6.2-1.9,6.2-7.3V71.4H420.9z"/>
	<path class="st4" d="M466.6,99.6h-12l-2.1-13.7H438l-2.1,13.7H425L437.1,24h17.4L466.6,99.6z M439.5,75.6h11.4l-5.7-38.2
		L439.5,75.6z"/>
	<path class="st4" d="M482.7,44.8v54.8H472V24h14.9l12.2,45.3V24h10.6v75.6h-12.2L482.7,44.8z"/>
</g>
</svg>
