<?xml version="1.0" encoding="utf-8"?>
<!-- Generator: Adobe Illustrator 27.0.0, SVG Export Plug-In . SVG Version: 6.00 Build 0)  -->
<svg version="1.1" id="Layer_1" xmlns="http://www.w3.org/2000/svg" xmlns:xlink="http://www.w3.org/1999/xlink" x="0px" y="0px"
	 viewBox="0 0 455 455" style="enable-background:new 0 0 455 455;" xml:space="preserve">
<style type="text/css">
	.st0{fill:url(#SVGID_1_);}
	.st1{fill:url(#SVGID_00000119099575301982000920000015320556523040688811_);}
	.st2{fill:url(#SVGID_00000044175836159387803790000008367587414479687325_);}
	.st3{fill:url(#SVGID_00000009550992905383528630000018368741974867379350_);}
	.st4{fill-rule:evenodd;clip-rule:evenodd;fill:#112244;}
	.st5{fill:none;stroke:#112244;stroke-width:5;stroke-miterlimit:10;}
	.st6{fill:none;stroke:#112244;stroke-width:7;stroke-miterlimit:10;}
</style>
<g>
	<linearGradient id="SVGID_1_" gradientUnits="userSpaceOnUse" x1="210" y1="105" x2="0" y2="105">
		<stop  offset="0" style="stop-color:#FFFFFF"/>
		<stop  offset="0.261" style="stop-color:#FDFDFD"/>
		<stop  offset="0.4054" style="stop-color:#F5F5F5"/>
		<stop  offset="0.5214" style="stop-color:#E7E8E7"/>
		<stop  offset="0.6223" style="stop-color:#D3D5D4"/>
		<stop  offset="0.7135" style="stop-color:#BABDBB"/>
		<stop  offset="0.7975" style="stop-color:#9B9F9C"/>
		<stop  offset="0.8761" style="stop-color:#767C77"/>
		<stop  offset="0.9485" style="stop-color:#4C544D"/>
		<stop  offset="1" style="stop-color:#29332B"/>
	</linearGradient>
	<path class="st0" d="M52.5,0h105c29,0,52.5,29,52.5,52.5v105c0,29-23.5,52.5-52.5,52.5h-105C23.5,210,0,181,0,157.5v-105
		C0,23.5,23.5,0,52.5,0z"/>
	
		<linearGradient id="SVGID_00000119839851551923407390000015707302691994229127_" gradientUnits="userSpaceOnUse" x1="166.6383" y1="-1.7607" x2="43.3617" y2="211.7607">
		<stop  offset="0" style="stop-color:#70E4FF"/>
		<stop  offset="1" style="stop-color:#86BBCD"/>
	</linearGradient>
	<path style="fill:url(#SVGID_00000119839851551923407390000015707302691994229127_);" d="M52.5,0h105c29,0,52.5,29,52.5,52.5v105
		c0,29-23.5,52.5-52.5,52.5h-105C23.5,210,0,181,0,157.5v-105C0,23.5,23.5,0,52.5,0z"/>
</g>
<linearGradient id="SVGID_00000155111216583965245510000010657333172010830230_" gradientUnits="userSpaceOnUse" x1="15.3765" y1="260.3765" x2="194.6235" y2="439.6235">
	<stop  offset="0" style="stop-color:#6395AE"/>
	<stop  offset="1" style="stop-color:#6395AE"/>
</linearGradient>
<path style="fill:url(#SVGID_00000155111216583965245510000010657333172010830230_);" d="M52.5,245h105c29,0,52.5,29,52.5,52.5v105
	c0,29-23.5,52.5-52.5,52.5h-105C23.5,455,0,426,0,402.5v-105C0,268.5,23.5,245,52.5,245z"/>
<linearGradient id="SVGID_00000009589216437939534750000000703204664944868015_" gradientUnits="userSpaceOnUse" x1="288.3617" y1="211.7607" x2="411.6383" y2="-1.7607">
	<stop  offset="0" style="stop-color:#C32426"/>
	<stop  offset="1" style="stop-color:#C32426"/>
</linearGradient>
<path style="fill:url(#SVGID_00000009589216437939534750000000703204664944868015_);" d="M297.5,0h105c29,0,52.5,29,52.5,52.5v105
	c0,29-23.5,52.5-52.5,52.5h-105c-29,0-52.5-29-52.5-52.5v-105C245,23.5,268.5,0,297.5,0z"/>
<g>
	<g>
		<path class="st4" d="M373,286.6L373,286.6c19.7,12.6,29.2,35.3,25.9,57.2l0,0.3c-1,6.9-3.3,13.6-7,19.9l-1.5,2.3
			c-2.4-6.5-6.6-12.3-12.4-16.7c1.1-2.6,1.1-2.6,0,0c-1.4-1.2-3-2.2-4.6-3.1c-6.6-3.8-13.8-5.5-20.9-5.2c-3-5.7-4.6-12-4.6-18.5
			c10.8-1.1,22.1,0.8,32.3,6.2l0,0.1c0.2,1.1,0.2,1.2,0,0l0,0v-0.1V329c-1.8-11.2-8.4-21.6-19-27.7c-1.6-0.9-3.3-1.8-5-2.4
			C360.7,293.3,366.5,289.1,373,286.6L373,286.6z"/>
		<path class="st4" d="M395.4,398.4c0,0,0,0.1,0,0.1c-20.7,10.6-45.2,7.6-62.5-6.3l-0.2-0.2c-5.4-4.3-10.1-9.7-13.8-16l-1.3-2.5
			c6.8,1.1,13.9,0.4,20.6-2.3c1.7,2.2,1.7,2.2,0,0c1.7-0.7,3.4-1.5,5-2.4c6.6-3.8,11.6-9.2,15-15.5c6.4,0.2,12.7,2,18.3,5.3
			c-4.4,9.9-11.7,18.7-21.5,24.9l-0.1,0c-1.1-0.4-1.1-0.4,0,0l0,0l0.1,0l0.1,0c10.6,4.1,22.9,3.5,33.5-2.6c1.6-0.9,3.1-2,4.6-3.1
			C395.8,384.5,396.5,391.6,395.4,398.4L395.4,398.4z"/>
		<path class="st4" d="M287.4,362C287.4,362,287.3,361.9,287.4,362c1.1-23.3,16-43,36.7-51l0.3-0.1c6.5-2.6,13.5-3.9,20.8-3.9
			l2.8,0.1c-4.3,5.4-7.3,11.9-8.3,19.1c-2.8,0.4-2.8,0.4,0,0c-0.3,1.8-0.4,3.6-0.4,5.5c0,7.6,2.2,14.7,5.9,20.7
			c-3.4,5.4-8.1,10-13.7,13.2c-6.4-8.8-10.3-19.5-10.9-31.1l0.1-0.1c0.9-0.7,0.9-0.7,0,0l0,0l-0.1,0l-0.1,0
			c-8.8,7.1-14.5,18.1-14.5,30.3c0,1.9,0.1,3.7,0.4,5.5C299.3,369.3,292.7,366.3,287.4,362L287.4,362z"/>
	</g>
	<path class="st5" d="M395.4,398.4c0,0,0,0.1,0,0.1c-20.7,10.6-45.2,7.6-62.5-6.3l-0.2-0.2c-5.4-4.3-10.1-9.7-13.8-16l-1.3-2.5
		c6.8,1.1,13.9,0.4,20.6-2.3c1.7,2.2,1.7,2.2,0,0c1.7-0.7,3.4-1.5,5-2.4c6.6-3.8,11.6-9.2,15-15.5c6.4,0.2,12.7,2,18.3,5.3
		c-4.4,9.9-11.7,18.7-21.5,24.9l-0.1,0c-1.1-0.4-1.1-0.4,0,0l0,0l0.1,0l0.1,0c10.6,4.1,22.9,3.5,33.5-2.6c1.6-0.9,3.1-2,4.6-3.1
		C395.8,384.5,396.5,391.6,395.4,398.4L395.4,398.4z"/>
	<path class="st5" d="M287.4,362C287.4,362,287.3,361.9,287.4,362c1.1-23.3,16-43,36.7-51l0.3-0.1c6.5-2.6,13.5-3.9,20.8-3.9
		l2.8,0.1c-4.3,5.4-7.3,11.9-8.3,19.1c-2.8,0.4-2.8,0.4,0,0c-0.3,1.8-0.4,3.6-0.4,5.5c0,7.6,2.2,14.7,5.9,20.7
		c-3.4,5.4-8.1,10-13.7,13.2c-6.4-8.8-10.3-19.5-10.9-31.1l0.1-0.1c0.9-0.7,0.9-0.7,0,0l0,0l-0.1,0l-0.1,0
		c-8.8,7.1-14.5,18.1-14.5,30.3c0,1.9,0.1,3.7,0.4,5.5C299.3,369.3,292.7,366.3,287.4,362L287.4,362z"/>
	<path class="st6" d="M282.9,272.8c-37.9,38.4-37.6,100.3,0.8,138.3c38.4,38,100.4,37.7,138.4-0.7c38-38.4,37.7-100.4-0.7-138.4"/>
	
		<rect x="275.6" y="264.2" transform="matrix(0.7033 -0.7108 0.7108 0.7033 -109.1271 281.7854)" class="st4" width="15" height="15"/>
	<path class="st6" d="M414.2,396.5c29.3-34,25.5-85.3-8.4-114.7c-34-29.4-85.4-25.7-114.8,8.3s-25.7,85.4,8.3,114.8"/>
	
		<rect x="406.6" y="389.1" transform="matrix(0.654 -0.7565 0.7565 0.654 -156.7356 450.4895)" class="st4" width="15" height="15"/>
</g>
</svg>
