<?xml version="1.0" encoding="UTF-8"?>
<svg id="Layer_1" data-name="Layer 1" xmlns="http://www.w3.org/2000/svg" viewBox="0 0 20.62 18.76">
  <defs>
    <style>
      .cls-1, .cls-2 {
        fill: none;
        stroke: #396b34;
        stroke-miterlimit: 10;
        stroke-width: .1px;
      }

      .cls-2 {
        fill-rule: evenodd;
      }
    </style>
  </defs>
  <path class="cls-2" d="m12.39,2.87h0c1.99,1.28,2.97,3.59,2.62,5.82v.03c-.11.7-.34,1.38-.72,2.03l-.16.24c-.25-.66-.67-1.25-1.26-1.7h0c-.14-.12-.3-.22-.46-.32-.67-.39-1.4-.56-2.12-.53-.3-.58-.47-1.22-.46-1.88,1.1-.11,2.24.08,3.29.63h0c-.18-1.14-.86-2.19-1.93-2.82-.16-.1-.33-.18-.5-.24.45-.57,1.04-1,1.7-1.25h0Z"/>
  <path class="cls-2" d="m14.67,14.23h0c-2.11,1.09-4.59.78-6.35-.63l-.02-.02c-.55-.44-1.03-.99-1.4-1.63l-.13-.25c.69.11,1.42.04,2.1-.24h0c.17-.07.34-.15.51-.24.67-.39,1.18-.94,1.52-1.58.65.02,1.29.21,1.86.54-.45,1.01-1.19,1.9-2.19,2.54h0c1.08.42,2.33.36,3.41-.26.16-.1.32-.2.46-.32.28.67.35,1.39.24,2.09h0Z"/>
  <path class="cls-2" d="m3.69,10.53s0,0,0,0c.11-2.36,1.63-4.36,3.73-5.18h.03c.66-.27,1.37-.41,2.11-.41h.28c-.44.56-.74,1.22-.84,1.95h0c-.03.19-.04.37-.04.56,0,.77.22,1.49.6,2.11-.35.55-.83,1.02-1.39,1.34-.65-.9-1.02-3.24-1.09-3.17h0s0,0,0,0c-.9.73-1.47,1.84-1.47,3.08,0,.19.01.38.04.56-.72-.1-1.39-.4-1.93-.84h0Z"/>
  <path class="cls-1" d="m10.31,18.71c-2.72,0-5.28-1.05-7.22-2.97C1.15,13.81.07,11.25.05,8.51.03,5.77.59,3.63,2.51,1.68l.45.44C1.15,3.95.66,5.93.68,8.5c.02,2.57,1.03,4.98,2.86,6.79,1.83,1.81,4.25,2.8,6.83,2.79,2.57-.01,4.98-1.03,6.79-2.86,3.74-3.77,3.7-9.88-.07-13.62l.44-.45c4.02,3.98,4.06,10.49.08,14.51-1.93,1.95-4.5,3.03-7.24,3.04-.02,0-.04,0-.06,0Z"/>
  <rect class="cls-1" x="2.49" y=".59" width="1.52" height="1.52" transform="translate(0 2.71) rotate(-45.3)"/>
  <path class="cls-1" d="m4.7,15.13c-1.73-1.5-2.78-3.59-2.95-5.87-.17-2.29.57-4.5,2.07-6.24C5.32,1.28,7.41.24,9.69.07c2.29-.17,4.5.57,6.24,2.07,1.73,1.5,2.78,3.58,2.95,5.87.17,2.28-.11,3.9-1.61,5.64l-.48-.41c1.38-1.61,1.61-3.06,1.46-5.18-.16-2.12-1.12-4.05-2.73-5.43C12.2-.25,7.17.11,4.3,3.43c-1.39,1.61-2.07,3.66-1.92,5.78.15,2.12,1.12,4.05,2.73,5.44l-.41.48Z"/>
  <rect class="cls-1" x="15.81" y="13.28" width="1.52" height="1.52" transform="translate(-4.89 17.39) rotate(-49.16)"/>
</svg>