<?xml version="1.0" encoding="utf-8"?>
<!-- Generator: Adobe Illustrator 26.5.0, SVG Export Plug-In . SVG Version: 6.00 Build 0)  -->
<svg version="1.1" xmlns="http://www.w3.org/2000/svg" xmlns:xlink="http://www.w3.org/1999/xlink" x="0px" y="0px"
	 viewBox="0 0 700 700" style="enable-background:new 0 0 700 700;" xml:space="preserve">
<style type="text/css">
	.st0{display:none;}
	.st1{display:inline;}
	.st2{fill-rule:evenodd;clip-rule:evenodd;fill:#112244;}
	.st3{display:inline;fill-rule:evenodd;clip-rule:evenodd;fill:none;stroke:#112244;stroke-width:5;stroke-miterlimit:10;}
	.st4{fill:none;stroke:#112233;stroke-width:10;stroke-miterlimit:10;}
	.st5{fill-rule:evenodd;clip-rule:evenodd;fill:#112233;}
	.st6{fill:none;stroke:#112255;stroke-width:10;stroke-miterlimit:10;}
	.st7{fill-rule:evenodd;clip-rule:evenodd;fill:#112255;}
	.st8{fill:#112244;}
	.st9{fill-rule:evenodd;clip-rule:evenodd;fill:#FFFFFF;stroke:#112233;stroke-width:10;stroke-miterlimit:10;}
	.st10{fill-rule:evenodd;clip-rule:evenodd;fill:#FFFFFF;stroke:#112255;stroke-width:10;stroke-miterlimit:10;}
</style>
<g id="Layer_1" class="st0">
	<g class="st1">
		<path class="st2" d="M392.8,204.2l0.2-0.1c53.7,34.6,80,96.9,70.7,157l-0.1,0.7c-2.8,18.8-9.1,37.3-19.2,54.7l-4.2,6.4
			c-6.7-17.7-18.2-33.6-33.9-45.8c2.9-7.1,2.9-7.2,0,0c-3.9-3.2-8.1-6-12.5-8.6c-18-10.4-37.9-15-57.3-14.3
			c-8.2-15.6-12.6-33-12.5-50.6c29.7-3.1,60.5,2.2,88.7,16.9l0.1,0.4c0.5,3.1,0.5,3.2,0,0l0,0v-0.2v-0.2
			c-4.8-30.8-23.1-59.2-52.2-76c-4.4-2.6-9-4.8-13.6-6.6C359.1,222.5,375.1,211,392.8,204.2L392.8,204.2z"/>
		<path class="st2" d="M454.3,510.8c0,0,0,0.2,0,0.3c-56.8,29.2-123.9,20.8-171.3-17.3l-0.6-0.5c-14.9-11.8-27.8-26.6-37.8-44
			l-3.5-6.8c18.7,3,38.2,1,56.6-6.4c4.7,6.1,4.7,6.1,0,0c4.7-1.8,9.3-4,13.7-6.5c18-10.4,31.9-25.3,41-42.5
			c17.6,0.6,34.9,5.6,50.1,14.5c-12.2,27.2-32.2,51.3-59,68.4l-0.4-0.1c-3-1.1-3-1.2,0,0l0,0l0.2,0.1l0.2,0.1
			c29.1,11.2,62.8,9.6,91.9-7.2c4.4-2.6,8.6-5.4,12.5-8.5C455.4,472.5,457.3,492,454.3,510.8L454.3,510.8z"/>
		<path class="st2" d="M158.1,410.8c0,0-0.2-0.1-0.2-0.2c3.1-63.8,44-117.7,100.7-139.7l0.7-0.3c17.7-7,36.9-10.8,57-10.8l7.6,0.4
			c-11.9,14.7-20,32.6-22.7,52.3c-7.6,1-7.7,1.1,0,0c-0.8,5-1.2,10-1.2,15.1c0,20.8,6,40.3,16.3,56.8c-9.4,14.9-22.3,27.4-37.6,36.2
			c-17.5-24.2-28.3-53.5-29.8-85.3l0.3-0.3c2.5-2,2.5-2,0,0l0,0l-0.2,0.1l-0.2,0.1c-24.2,19.6-39.7,49.6-39.7,83.2
			c0,5.1,0.4,10.2,1.1,15.1C190.7,430.9,172.8,422.7,158.1,410.8L158.1,410.8z"/>
	</g>
	<path class="st3" d="M454.3,510.8c0,0,0,0.2,0,0.3c-56.8,29.2-123.9,20.8-171.3-17.3l-0.6-0.5c-14.9-11.8-27.8-26.6-37.8-44
		l-3.5-6.8c18.7,3,38.2,1,56.6-6.4c4.7,6.1,4.7,6.1,0,0c4.7-1.8,9.3-4,13.7-6.5c18-10.4,31.9-25.3,41-42.5
		c17.6,0.6,34.9,5.6,50.1,14.5c-12.2,27.2-32.2,51.3-59,68.4l-0.4-0.1c-3-1.1-3-1.2,0,0l0,0l0.2,0.1l0.2,0.1
		c29.1,11.2,62.8,9.6,91.9-7.2c4.4-2.6,8.6-5.4,12.5-8.5C455.4,472.5,457.3,492,454.3,510.8L454.3,510.8z"/>
	<path class="st3" d="M158.1,410.8c0,0-0.2-0.1-0.2-0.2c3.1-63.8,44-117.7,100.7-139.7l0.7-0.3c17.7-7,36.9-10.8,57-10.8l7.6,0.4
		c-11.9,14.7-20,32.6-22.7,52.3c-7.6,1-7.7,1.1,0,0c-0.8,5-1.2,10-1.2,15.1c0,20.8,6,40.3,16.3,56.8c-9.4,14.9-22.3,27.4-37.6,36.2
		c-17.5-24.2-28.3-53.5-29.8-85.3l0.3-0.3c2.5-2,2.5-2,0,0l0,0l-0.2,0.1l-0.2,0.1c-24.2,19.6-39.7,49.6-39.7,83.2
		c0,5.1,0.4,10.2,1.1,15.1C190.7,430.9,172.8,422.7,158.1,410.8L158.1,410.8z"/>
	<g class="st1">
		<path class="st4" d="M145.8,166.2c-104,105.4-103,275.1,2.3,379.2c105.4,104.3,275.3,103.3,379.5-2s103.3-275.3-2-379.5"/>
		
			<rect x="125.8" y="142.6" transform="matrix(0.7033 -0.7108 0.7108 0.7033 -72.5669 152.3964)" class="st5" width="41" height="41"/>
	</g>
	<g class="st1">
		<path class="st6" d="M505.9,505.4c80.3-93.2,70-233.9-23.1-314.4c-93.2-80.6-234.1-70.4-314.7,22.8s-70.4,234.1,22.8,314.7"/>
		
			<rect x="485.1" y="485.2" transform="matrix(0.654 -0.7565 0.7565 0.654 -207.6133 557.4731)" class="st7" width="41" height="41"/>
	</g>
</g>
<g id="Layer_2">
	<path class="st8" d="M407.4,185.9l-1.2-0.8l-1.4,0.7c-18.5,7.1-34.7,19-46.8,34.4l-2.1,2.6l3.1,1.2c4.6,1.8,9.1,4,13.2,6.5
		c26.1,15.1,44.1,40.3,50,69.5c-26.6-12.9-56.2-18.2-85.7-15.1l-2.2,0.2l0,2.2c-0.1,17.8,4.3,35.7,12.7,51.8l0.7,1.4l1.6-0.1
		c19.6-0.7,38.9,4.2,55.9,14.1c4.1,2.4,7.6,4.8,10.7,7.3l0,0l4.1,3.3l0,0c13.7,11.4,24.2,26.1,30.4,42.7l1.7,4.6l6.9-10.5l0.1-0.1
		c10.1-17.3,16.7-35.9,19.6-55.6l0.1-0.7C488.7,283,460.7,220.4,407.4,185.9z M423.6,307.6 M428.5,308.6
		c-1.3-34-24.8-65.7-53.6-82.4c-3.4-2-7-3.9-10.8-5.5c11.1-13.2,25.5-23.5,41.7-29.9c50.9,33.5,77.6,93.8,68.2,154l-0.1,0.7
		c-2.9,19-9.2,37-19,53.7l-1.5,2.4c-6.9-16-17.6-30.2-31.3-41.3L418,357c-3-2.3-6.3-4.5-10.2-6.8c-17.4-10.1-37.1-15.2-57-14.8
		c-7.2-14.3-11.2-30.1-11.4-45.8c29-2.6,58,3.1,83.9,16.4 M428.5,306.8"/>
	<path class="st8" d="M467.3,497.9l1.3-0.6l0.1-1.5c3.2-19.5,1.2-39.5-6-57.8l-1.2-3.1l-2.6,2.1c-3.9,3.1-8,5.8-12.3,8.2
		c-26.2,14.9-57,17.7-85.2,8c24.6-16.5,44-39.3,56.3-66.3l0.9-2l-1.9-1.1c-15.3-9.1-32.9-14.4-51.1-15.2l-1.6-0.1l-0.7,1.4
		c-9.3,17.2-23.3,31.5-40.4,41.1c-4.2,2.3-8,4.1-11.7,5.6l0,0l-4.9,1.9l0,0c-16.8,6.1-34.7,7.7-52.2,4.7l-4.8-0.8l5.6,11.3l0.1,0.1
		c9.8,17.4,22.6,32.5,38,45l0.5,0.4C342.4,519,410.7,526.5,467.3,497.9z M354.2,450.4 M350.8,454.1c30,16.1,69.2,11.8,98.2-4.6
		c3.5-1.9,6.9-4.1,10.2-6.5c5.8,16.3,7.4,33.9,4.7,51.1c-54.6,27-120.2,19.6-167.3-18.9l-0.5-0.4c-14.9-12-27.3-26.7-36.8-43.5
		l-1.2-2.5c17.3,2.2,35,0.1,51.5-6.2l4.9-1.9c3.5-1.4,7.1-3.2,11-5.4c17.5-9.9,31.8-24.3,41.6-41.7c16,1,31.6,5.6,45.3,13.3
		c-12.5,26.3-32,48.5-56.6,64.1 M352.4,455"/>
	<path class="st8" d="M168.7,393.9l-0.1,1.4l1.3,0.8c15.4,12.5,33.8,20.5,53.2,23.3l3.3,0.5l-0.5-3.3c-0.7-4.9-1.1-9.9-1-14.7
		c0-30.1,12.8-58.3,35.1-78.1c2.2,29.5,12.4,57.7,29.8,81.8l1.3,1.8l1.9-1.1c15.4-8.8,28.8-21.6,38.5-36.9l0.8-1.3l-0.8-1.3
		c-10.4-16.6-15.9-35.8-15.8-55.4c0.1-4.8,0.3-9,0.9-12.9l0,0l0.8-5.2l0,0c3-17.6,10.5-34,21.7-47.7l3.1-3.8l-12.5-0.7l-0.1,0
		c-20-0.1-39.5,3.6-57.9,10.8l-0.6,0.3C212.1,274.8,171.9,330.5,168.7,393.9z M265.9,319 M264.4,314.2
		c-28.8,18.2-44.4,54.4-44.5,87.6c0,4,0.2,8,0.6,12.1c-17-3-33.1-10.3-46.8-21.2c3.5-60.8,42.3-114.2,99.1-136.1l0.6-0.3
		c17.8-7,36.7-10.6,56-10.5l2.8,0.2c-10.4,14-17.3,30.4-20.1,47.8l-0.8,5.2c-0.5,3.7-0.7,7.7-0.8,12.2c0,20.1,5.4,39.7,15.8,56.8
		c-8.8,13.5-20.5,24.7-33.9,32.8c-16.7-23.9-26.3-51.7-27.8-80.9 M262.8,315.1"/>
	<path class="st4" d="M151.2,160c-104,105.4-103,275.1,2.3,379.2c105.4,104.3,275.3,103.3,379.5-2s103.3-275.3-2-379.5"/>
	
		<rect x="131.2" y="136.4" transform="matrix(0.7033 -0.7108 0.7108 0.7033 -66.5283 154.3903)" class="st9" width="41" height="41"/>
	<path class="st6" d="M511.3,499.2c80.3-93.2,70-233.9-23.1-314.4c-93.2-80.6-234.1-70.4-314.7,22.8s-70.4,234.1,22.8,314.7"/>
	<rect x="490.5" y="479" transform="matrix(0.654 -0.7565 0.7565 0.654 -201.0231 559.4061)" class="st10" width="41" height="41"/>
</g>
</svg>
