<svg version="1.1" id="Layer_1"
	xmlns="http://www.w3.org/2000/svg"
	xmlns:xlink="http://www.w3.org/1999/xlink" x="0px" y="0px" viewBox="0 0 402.6 48.8" style="enable-background:new 0 0 402.6 48.8;" xml:space="preserve">
	<style type="text/css">
	.st0{fill:#2F3E62;}
	.st1{fill:#303E62;}
	.st2{fill:#933C6C;}
	</style>
	<path class="st0" d="M0,24.6C0,9.2,9.6,0,21.6,0c5.9,0,10.6,2.8,13.6,6l-4.5,5.4c-2.4-2.4-5.2-4.1-8.9-4.1c-7.7,0-13.2,6.5-13.2,17
	s5.1,17.2,13,17.2c4.2,0,7.4-1.9,10-4.8l4.5,5.2c-3.8,4.4-8.7,6.8-14.8,6.8C9.4,48.8,0,40.2,0,24.6z"/>
	<path class="st0" d="M40.9,30.3c0-11.8,8-18.6,16.8-18.6s16.8,6.8,16.8,18.6s-8,18.5-16.8,18.5S40.9,42,40.9,30.3z M66,30.3
	c0-7.1-3.1-11.8-8.3-11.8s-8.3,4.7-8.3,11.8S52.5,42,57.7,42S66,37.4,66,30.3z"/>
	<path class="st0" d="M83,0.9h8.6l14.6,26.5l4.9,10.1h0.3c-0.4-4.9-1.1-10.8-1.1-16.1V0.9h7.9V48h-8.6L95.1,21.4l-4.9-10h-0.3
	c0.4,5,1.1,10.7,1.1,15.9V48H83V0.9z"/>
	<path class="st0" d="M130.3,0.9h28.3v7h-20V20h16.9v7h-16.9v13.9h20.7v7h-29.1V0.9z"/>
	<path class="st0" d="M178.5,7.9h-13.6v-7h35.5v7h-13.6V48h-8.4L178.5,7.9L178.5,7.9z"/>
	<path class="st1" d="M288.4,23.2h5.9c4.5,0,7.1,2,7.1,5.2c0,3.6-3.1,5.7-5.5,6.1v0.2c2.4,0.5,4.6,2.1,4.6,5.1c0,5.2-4,7.6-9.8,7.6
	h-7.2L288.4,23.2L288.4,23.2z M290.2,46.1c5.3,0,8.8-1.7,8.8-6.2c0-2.7-2.4-4.7-6.5-4.7h-4.9l-2.2,10.9H290.2L290.2,46.1z
	 M291.9,33.9c5.3,0,7.9-2.2,7.9-5.3c0-2.6-1.9-4.1-6.1-4.1h-4l-1.9,9.4H291.9L291.9,33.9z"/>
	<path class="st1" d="M308.2,29.7h1.3l-0.5,3.3h0.1c1.5-2.1,3.3-3.8,5.5-3.8c0.5,0,1,0.1,1.6,0.3l-0.6,1.4c-0.3-0.2-0.7-0.3-1.4-0.3
	c-1.9,0-4.1,1.8-5.7,5l-2.3,11.7h-1.5L308.2,29.7L308.2,29.7z"/>
	<path class="st1" d="M316,40.8c0-6.6,4.5-11.5,9.3-11.5c3.6,0,6,2.6,6,7c0,6.6-4.5,11.5-9.3,11.5C318.4,47.8,316,45.3,316,40.8z
	 M329.8,36.5c0-3.8-1.6-5.9-4.6-5.9c-3.8,0-7.7,4.6-7.7,10c0,3.8,1.6,5.9,4.6,5.9C325.9,46.5,329.8,41.9,329.8,36.5z"/>
	<path class="st1" d="M335.4,29.7h1.5l0.9,11.5c0.1,1.6,0.2,3.2,0.4,4.8h0.1c0.7-1.6,1.4-3.2,2.1-4.8l5.3-11.5h1.8l0.8,11.5
	c0.1,1.6,0.2,3.2,0.3,4.8h0.1c0.7-1.6,1.4-3.2,2.2-4.8l5.4-11.5h1.5l-8.3,17.6h-2.1l-0.7-11c-0.1-1.7-0.1-3.6-0.2-5.2h-0.1
	c-0.7,1.7-1.5,3.5-2.3,5.2l-5,11h-2.1L335.4,29.7L335.4,29.7z"/>
	<path class="st1" d="M357.9,44.5l1.1-0.8c1,1.5,2.8,2.8,5,2.8c2.4,0,4.5-1.7,4.5-3.7c0-1.4-0.6-2.3-3.4-3.8
	c-3.2-1.7-4.3-2.9-4.3-4.8c0-3,2.6-5,5.6-5c2,0,3.6,0.9,4.9,2.1l-1,1c-1-1-2.2-1.8-4-1.8c-2.2,0-4,1.6-4,3.4c0,1.7,1.5,2.6,3.3,3.5
	c3.8,2.1,4.4,3.4,4.4,5c0,3.2-2.6,5.2-6.1,5.2C361.3,47.8,359,46.2,357.9,44.5L357.9,44.5z"/>
	<path class="st1" d="M383,29.3c3.8,0,5.3,2.6,5.3,6.3c0,1.2-0.3,2.4-0.5,3.1h-12.3c-1,5.5,1.8,7.9,5.3,7.9c1.6,0,3.1-0.8,4.4-1.7
	l0.7,1.1c-1.4,1-3.3,1.9-5.3,1.9c-4.1,0-6.7-2.5-6.7-7.3C373.8,33.9,378.5,29.3,383,29.3L383,29.3z M386.7,37.4
	c0.1-0.7,0.2-1.3,0.2-2.1c0-2.4-1-4.7-4-4.7s-6.2,2.8-7.1,6.8L386.7,37.4L386.7,37.4z"/>
	<path class="st1" d="M394.6,29.7h1.3l-0.5,3.3h0.1c1.5-2.1,3.3-3.8,5.5-3.8c0.5,0,1,0.1,1.6,0.3L402,31c-0.3-0.2-0.7-0.3-1.4-0.3
	c-1.9,0-4.1,1.8-5.7,5l-2.3,11.7h-1.5L394.6,29.7L394.6,29.7z"/>
	<g>
		<path class="st2" d="M214.2,47.3c-0.1-0.9-0.3-1.9-0.5-3l-2-8.3c-0.3-1.1-0.5-2.4-0.7-4.3c-0.2,1.2-0.5,2.9-0.8,4.3l-1.9,8.4
		c-0.3,1.4-0.5,2.2-0.6,3h-5.1c-0.1-0.8-0.3-1.4-0.6-3.1l-4.1-17c-0.4-1.4-0.7-2.7-1-3.5h5.9c0,1,0.2,1.9,0.4,3.1l1.7,8.6
		c0.1,0.4,0.3,1.8,0.6,4c0.4-2.4,0.6-3.4,0.7-4l2.1-8.8c0.3-1.3,0.5-2.2,0.6-2.9h4.6c0.1,0.7,0.3,1.5,0.6,2.9l2.1,8.7
		c0.2,0.9,0.4,1.8,0.7,4.1c0.1-0.5,0.1-0.5,0.2-1.7c0.1-0.6,0.3-2,0.4-2.4l1.6-8.4c0.3-1.3,0.4-2.1,0.4-3.1h5.9
		c-0.3,0.8-0.6,2.1-1,3.5l-4.1,17c-0.3,1.3-0.6,2.4-0.6,3.1H214.2z"/>
		<path class="st2" d="M230.8,40.3c0.3,2.3,1.5,3.5,3.5,3.5c1,0,1.9-0.4,2.6-1c0.4-0.4,0.6-0.7,0.8-1.4l4.5,1.4
		c-0.6,1.5-1,2.1-1.7,2.9c-1.5,1.6-3.5,2.4-6.1,2.4c-2.5,0-4.5-0.8-6-2.4c-1.5-1.7-2.4-4.1-2.4-6.9c0-5.6,3.3-9.3,8.2-9.3
		c4,0,6.9,2.4,7.8,6.6c0.2,0.9,0.3,2.1,0.4,3.7c0,0.1,0,0.3,0,0.6H230.8z M237.5,36.4c-0.4-1.8-1.5-2.8-3.3-2.8
		c-1.8,0-2.9,0.9-3.4,2.8H237.5z"/>
		<path class="st2" d="M244.5,47.3c0.2-1.4,0.2-2.5,0.2-4.4V28.2c0-2.1-0.1-3.1-0.2-4.4h5.2c-0.1,1.4-0.2,2.4-0.2,4.4v2.4
		c0,0.4,0,0.7,0,1.1c1.5-1.5,3.2-2.1,5.3-2.1c4.7,0,7.4,3.3,7.4,8.9c0,3-0.8,5.5-2.3,7.2c-1.3,1.5-3.1,2.2-5.4,2.2
		c-2.1,0-3.4-0.5-5.1-2c0,0.1,0,0.5,0,0.6v0.9H244.5z M253.7,33.8c-2.4,0-4,2-4,4.7c0,2.8,1.7,4.9,3.9,4.9c2.2,0,3.7-2,3.7-5
		C257.3,35.6,255.9,33.8,253.7,33.8z"/>
		<path class="st2" d="M269.4,40.1c0.2,0.9,0.3,1.3,0.7,1.8c0.7,0.8,1.7,1.2,3,1.2c2,0,3.3-1.1,3.3-2.8c0-1.2-0.5-2.1-1.4-2.4
		c-0.6-0.2-1.4-0.4-2.4-0.4s-2.2,0.1-3.2,0.2v-4.9c0.9,0.1,1.7,0.2,2.7,0.2c2.5,0,3.7-0.9,3.7-2.7c0-1.5-1-2.4-2.7-2.4
		c-1.8,0-2.8,0.8-3.2,2.6l-5.6-0.9c0.5-1.8,0.9-2.6,1.7-3.6c1.6-1.9,4-2.8,7.1-2.8c2.8,0,5.1,0.9,6.6,2.4c1,1,1.4,2.4,1.4,4
		c0,3-1.5,4.9-4.4,5.6c1.6,0.3,2.4,0.7,3.3,1.5c1.1,1.1,1.7,2.6,1.7,4.2c0,1.4-0.4,2.8-1,3.8c-0.6,0.9-1.5,1.6-2.4,2.1
		c-1.3,0.7-3.4,1.1-5.4,1.1c-2.3,0-4.7-0.6-6-1.6c-1.2-0.9-2.1-2.1-2.7-3.7c-0.2-0.4-0.3-0.8-0.4-1.5L269.4,40.1z"/>
	</g>
</svg>