<?xml version="1.0" encoding="utf-8"?>
<!-- Generator: Adobe Illustrator 27.9.0, SVG Export Plug-In . SVG Version: 6.00 Build 0)  -->
<svg version="1.1" id="Layer_1_copy" xmlns="http://www.w3.org/2000/svg" xmlns:xlink="http://www.w3.org/1999/xlink" x="0px"
	 y="0px" viewBox="0 0 2980.6 622.7" style="enable-background:new 0 0 2980.6 622.7;" xml:space="preserve">
<style type="text/css">
	.st0{fill-rule:evenodd;clip-rule:evenodd;fill:#152F63;}
	.st1{fill:#152F63;}
	.st2{display:none;}
	.st3{display:inline;fill:#112244;}
	.st4{display:inline;fill:none;stroke:#112233;stroke-width:10;stroke-miterlimit:10;}
	
		.st5{display:inline;fill-rule:evenodd;clip-rule:evenodd;fill:#FFFFFF;stroke:#112233;stroke-width:9.9986;stroke-miterlimit:9.9986;}
	.st6{display:inline;fill:none;stroke:#112255;stroke-width:10;stroke-miterlimit:10;}
	.st7{display:inline;fill-rule:evenodd;clip-rule:evenodd;fill:#FFFFFF;stroke:#112255;stroke-width:10;stroke-miterlimit:10;}
</style>
<path class="st0" d="M404.1,108.9l0.2-0.1c61.7,39.8,92,111.4,81.3,180.5l-0.1,0.8c-3.2,21.6-10.5,42.9-22.1,62.9l-4.8,7.4
	c-7.7-20.3-20.9-38.6-39-52.6c3.3-8.2,3.3-8.3,0,0c-4.5-3.7-9.3-6.9-14.4-9.9c-20.7-12-43.6-17.2-65.9-16.4
	c-9.4-17.9-14.5-37.9-14.4-58.2c34.1-3.6,69.5,2.5,102,19.4l0.1,0.5c0.6,3.6,0.6,3.7,0,0l0,0v-0.2v-0.2c-5.5-35.4-26.6-68-60-87.4
	c-5.1-3-10.3-5.5-15.6-7.6C365.3,129.9,383.7,116.7,404.1,108.9L404.1,108.9z"/>
<path class="st0" d="M474.7,461.3c0,0,0,0.2,0,0.3c-65.3,33.6-142.4,23.9-196.9-19.9l-0.7-0.6c-17.1-13.6-32-30.6-43.5-50.6l-4-7.8
	c21.5,3.4,43.9,1.1,65.1-7.4c5.4,7,5.4,7,0,0c5.4-2.1,10.7-4.6,15.7-7.5c20.7-12,36.7-29.1,47.1-48.9c20.2,0.7,40.1,6.4,57.6,16.7
	c-14,31.3-37,59-67.8,78.6l-0.5-0.1c-3.4-1.3-3.4-1.4,0,0l0,0l0.2,0.1l0.2,0.1c33.4,12.9,72.2,11,105.6-8.3c5.1-3,9.9-6.2,14.4-9.8
	C476,417.3,478.2,439.7,474.7,461.3L474.7,461.3z"/>
<path class="st0" d="M134.3,346.3c0,0-0.2-0.1-0.2-0.2c3.6-73.3,50.6-135.3,115.8-160.6l0.8-0.3c20.3-8,42.4-12.4,65.5-12.4l8.7,0.5
	c-13.7,16.9-23,37.5-26.1,60.1c-8.7,1.1-8.9,1.3,0,0c-0.9,5.7-1.4,11.5-1.4,17.4c0,23.9,6.9,46.3,18.7,65.3
	c-10.8,17.1-25.6,31.5-43.2,41.6c-20.1-27.8-32.5-61.5-34.3-98.1l0.3-0.3c2.9-2.3,2.9-2.3,0,0l0,0l-0.2,0.1l-0.2,0.1
	c-27.8,22.5-45.6,57-45.6,95.6c0,5.9,0.5,11.7,1.3,17.4C171.7,369.4,151.2,360,134.3,346.3L134.3,346.3z"/>
<path class="st1" d="M339.7,600c-84.4,0-163.8-32.6-223.8-92C55.5,448.3,22,368.7,21.5,283.7c-0.5-84.9,32.1-165,91.7-225.4
	L127.1,72c-56,56.7-86.6,131.9-86.1,211.6c0.5,79.7,32,154.5,88.6,210.5c56.7,56.1,131.9,86.8,211.7,86.4
	c79.8-0.4,154.6-31.9,210.7-88.6c115.8-117.1,114.8-306.6-2.2-422.4l13.7-13.9c124.7,123.4,125.8,325.3,2.4,450
	C506.2,566,426.4,599.6,341.5,600C340.9,600,340.3,600,339.7,600z"/>
<rect x="97.1" y="38" transform="matrix(0.7033 -0.7108 0.7108 0.7033 -7.981 104.0434)" class="st0" width="47.1" height="47.1"/>
<path class="st1" d="M165.6,489c-53.8-46.5-86.2-111.2-91.4-182.1c-5.1-70.9,17.7-139.6,64.2-193.4c46.5-53.8,111.2-86.2,182.1-91.4
	c70.9-5.1,139.6,17.7,193.4,64.2c53.7,46.5,86.2,111.1,91.4,181.9c5.2,70.8-17.5,139.5-63.8,193.3l-14.8-12.8
	c42.9-49.8,63.9-113.4,59.1-179.1c-4.8-65.6-34.9-125.5-84.7-168.5c-102.9-89-259-77.7-348,25.2c-43.1,49.8-64.2,113.5-59.5,179.2
	c4.8,65.7,34.8,125.7,84.7,168.8L165.6,489z"/>
<rect x="510.1" y="431.9" transform="matrix(0.654 -0.7565 0.7565 0.654 -159.8738 561.3326)" class="st0" width="47.1" height="47.1"/>
<g id="Layer_2_00000091011873916420565470000001376202000682453411_" class="st2">
	<path class="st3" d="M397,146.6l-1.2-0.8l-1.4,0.7c-18.5,7.1-34.7,19-46.8,34.4l-2.1,2.6l3.1,1.2c4.6,1.8,9.1,4,13.2,6.5
		c26.1,15.1,44.1,40.3,50,69.5c-26.6-12.9-56.2-18.2-85.7-15.1l-2.2,0.2v2.2c-0.1,17.8,4.3,35.7,12.7,51.8l0.7,1.4l1.6-0.1
		c19.6-0.7,38.9,4.2,55.9,14.1c4.1,2.4,7.6,4.8,10.7,7.3l0,0l4.1,3.3l0,0c13.7,11.4,24.2,26.1,30.4,42.7l1.7,4.6l6.9-10.5l0.1-0.1
		c10.1-17.3,16.7-35.9,19.6-55.6l0.1-0.7C478.3,243.7,450.3,181.1,397,146.6z M418.1,269.3c-1.3-34-24.8-65.7-53.6-82.4
		c-3.4-2-7-3.9-10.8-5.5c11.1-13.2,25.5-23.5,41.7-29.9c50.9,33.5,77.6,93.8,68.2,154l-0.1,0.7c-2.9,19-9.2,37-19,53.7l-1.5,2.4
		c-6.9-16-17.6-30.2-31.3-41.3l-4.1-3.3c-3-2.3-6.3-4.5-10.2-6.8c-17.4-10.1-37.1-15.2-57-14.8c-7.2-14.3-11.2-30.1-11.4-45.8
		c29-2.6,58,3.1,83.9,16.4"/>
	<path class="st3" d="M456.9,458.6l1.3-0.6l0.1-1.5c3.2-19.5,1.2-39.5-6-57.8l-1.2-3.1l-2.6,2.1c-3.9,3.1-8,5.8-12.3,8.2
		c-26.2,14.9-57,17.7-85.2,8c24.6-16.5,44-39.3,56.3-66.3l0.9-2l-1.9-1.1c-15.3-9.1-32.9-14.4-51.1-15.2l-1.6-0.1l-0.7,1.4
		c-9.3,17.2-23.3,31.5-40.4,41.1c-4.2,2.3-8,4.1-11.7,5.6l0,0l-4.9,1.9l0,0c-16.8,6.1-34.7,7.7-52.2,4.7l-4.8-0.8l5.6,11.3l0.1,0.1
		c9.8,17.4,22.6,32.5,38,45l0.5,0.4C332,479.7,400.3,487.2,456.9,458.6z M340.4,414.8c30,16.1,69.2,11.8,98.2-4.6
		c3.5-1.9,6.9-4.1,10.2-6.5c5.8,16.3,7.4,33.9,4.7,51.1c-54.6,27-120.2,19.6-167.3-18.9l-0.5-0.4c-14.9-12-27.3-26.7-36.8-43.5
		l-1.2-2.5c17.3,2.2,35,0.1,51.5-6.2l4.9-1.9c3.5-1.4,7.1-3.2,11-5.4c17.5-9.9,31.8-24.3,41.6-41.7c16,1,31.6,5.6,45.3,13.3
		c-12.5,26.3-32,48.5-56.6,64.1"/>
	<path class="st3" d="M158.3,354.6l-0.1,1.4l1.3,0.8c15.4,12.5,33.8,20.5,53.2,23.3l3.3,0.5l-0.5-3.3c-0.7-4.9-1.1-9.9-1-14.7
		c0-30.1,12.8-58.3,35.1-78.1c2.2,29.5,12.4,57.7,29.8,81.8l1.3,1.8l1.9-1.1c15.4-8.8,28.8-21.6,38.5-36.9l0.8-1.3l-0.8-1.3
		c-10.4-16.6-15.9-35.8-15.8-55.4c0.1-4.8,0.3-9,0.9-12.9l0,0l0.8-5.2l0,0c3-17.6,10.5-34,21.7-47.7l3.1-3.8l-12.5-0.7h-0.1
		c-20-0.1-39.5,3.6-57.9,10.8l-0.6,0.3C201.7,235.5,161.5,291.2,158.3,354.6z M254,274.9c-28.8,18.2-44.4,54.4-44.5,87.6
		c0,4,0.2,8,0.6,12.1c-17-3-33.1-10.3-46.8-21.2c3.5-60.8,42.3-114.2,99.1-136.1l0.6-0.3c17.8-7,36.7-10.6,56-10.5l2.8,0.2
		c-10.4,14-17.3,30.4-20.1,47.8l-0.8,5.2c-0.5,3.7-0.7,7.7-0.8,12.2c0,20.1,5.4,39.7,15.8,56.8c-8.8,13.5-20.5,24.7-33.9,32.8
		c-16.7-23.9-26.3-51.7-27.8-80.9"/>
	<path class="st4" d="M140.8,120.7c-104,105.4-103,275.1,2.3,379.2c105.4,104.3,275.3,103.3,379.5-2s103.3-275.3-2-379.5"/>
	
		<rect x="120.8" y="97.1" transform="matrix(0.7033 -0.7108 0.7108 0.7033 -41.6862 135.3459)" class="st5" width="41" height="41"/>
	<path class="st6" d="M500.9,459.9c80.3-93.2,70-233.9-23.1-314.4c-93.2-80.6-234.1-70.4-314.7,22.8S92.7,402.4,185.9,483"/>
	<rect x="480.2" y="439.8" transform="matrix(0.654 -0.7565 0.7565 0.654 -174.957 537.9937)" class="st7" width="41" height="41"/>
</g>
<path class="st1" d="M1088.2,500c-18.1,9-61.8,20.1-117.6,20.1c-152.3,0-232.1-88.4-232.1-203.8c0-133,103.6-215,240.2-215
	c54.1,0,95.9,10.5,114.4,20.4l-20.5,74.3c-21.2-9.2-52.4-17.6-90.2-17.6c-81.2,0-143.3,45.7-143.3,132.2
	c0,75.9,51.5,131.3,144.1,131.3c33,0,68.3-6.4,89.3-15.4L1088.2,500z"/>
<path class="st1" d="M1607,307.7c0,126.1-88.7,212.4-220.8,212.4c-129.4,0-211.4-88.6-211.4-205.4c0-124.4,89.1-213.4,218-213.4
	C1525.7,101.3,1607,189.4,1607,307.7z M1276.3,312.1c0,75.1,44.1,133.9,114.8,133.9c71.3,0,114.3-57.8,114.3-135.4
	c0-73.4-42.3-135.1-114.3-135.1C1318.9,175.5,1276.3,236.1,1276.3,312.1z"/>
<path class="st1" d="M1731.6,512.9V108.5h118l91.2,144.9c28.2,46.1,53.2,96.4,73.7,145.6l1.7-0.3c-6.6-57.2-7.2-106.2-7.2-162.9
	V108.5h88.9v404.4h-103.7L1899,356.5c-27.6-46.8-56.9-98.9-79.9-150l-2.3,0.3c3,57.9,3.6,113.4,3.6,174.4v131.8H1731.6z"/>
<path class="st1" d="M2504.9,344.1h-167.7v91.7h187.2v77.1h-282.8V108.5h273.5v77.1h-177.9V267h167.7V344.1z"/>
<path class="st1" d="M2743.3,186.6h-121.7v-78.1h341v78.1H2839v326.3h-95.6V186.6z"/>
</svg>
