
<svg id="Layer_1" data-name="Layer 1" xmlns="http://www.w3.org/2000/svg" viewBox="0 0 318.37 48.82">
  <defs>
    <style>
      .cls-1 {
        fill: #943b6c;
      }

      .cls-2 {
        fill: #2f3e62;
      }
    </style>
  </defs>
  <path class="cls-2" d="m0,24.57C0,9.16,9.65,0,21.57,0c5.9,0,10.6,2.82,13.57,5.96l-4.46,5.39c-2.42-2.42-5.24-4.09-8.93-4.09-7.66,0-13.16,6.48-13.16,17.05s5.07,17.25,12.96,17.25c4.18,0,7.4-1.93,10.05-4.84l4.46,5.24c-3.82,4.44-8.73,6.85-14.83,6.85C9.39,48.82,0,40.15,0,24.57Z"/>
  <path class="cls-2" d="m40.9,30.3c0-11.78,8.01-18.58,16.82-18.58s16.82,6.8,16.82,18.58-8.01,18.52-16.82,18.52-16.82-6.8-16.82-18.52Zm25.12,0c0-7.09-3.11-11.81-8.3-11.81s-8.29,4.72-8.29,11.81,3.11,11.75,8.29,11.75,8.3-4.67,8.3-11.75Z"/>
  <path class="cls-2" d="m83.04.86h8.58l14.63,26.47,4.87,10.05h.29c-.4-4.87-1.07-10.83-1.07-16.07V.86h7.95v47.09h-8.58l-14.63-26.51-4.87-10.01h-.29c.4,4.98,1.07,10.66,1.07,15.9v20.62h-7.95V.86Z"/>
  <path class="cls-2" d="m130.28.86h28.34v7.03h-19.99v12.07h16.94v7.03h-16.94v13.94h20.71v7.03h-29.06V.86Z"/>
  <path class="cls-2" d="m178.52,7.89h-13.59V.86h35.54v7.03h-13.59v40.06h-8.35V7.89Z"/>
  <path class="cls-1" d="m204.22,23.16h5.92c4.52,0,7.12,1.95,7.12,5.25,0,3.56-3.09,5.65-5.48,6.09v.15c2.38.53,4.56,2.13,4.56,5.13,0,5.2-4,7.61-9.78,7.61h-7.19l4.84-24.22Zm1.79,22.91c5.26,0,8.78-1.71,8.78-6.18,0-2.72-2.35-4.73-6.48-4.73h-4.9l-2.23,10.91h4.84Zm1.71-12.16c5.31,0,7.94-2.23,7.94-5.33,0-2.58-1.89-4.11-6.14-4.11h-4.01l-1.89,9.44h4.1Z"/>
  <path class="cls-1" d="m223.96,29.73h1.27l-.54,3.34h.15c1.46-2.09,3.26-3.78,5.52-3.78.5,0,1.02.08,1.59.3l-.59,1.43c-.32-.16-.73-.29-1.38-.29-1.87,0-4.12,1.82-5.72,4.97l-2.32,11.68h-1.51l3.54-17.65Z"/>
  <path class="cls-1" d="m231.84,40.84c0-6.6,4.51-11.55,9.31-11.55,3.62,0,5.96,2.56,5.96,6.98,0,6.6-4.51,11.55-9.31,11.55-3.62,0-5.96-2.56-5.96-6.98Zm13.75-4.36c0-3.82-1.65-5.86-4.57-5.86-3.79,0-7.66,4.59-7.66,10.01,0,3.82,1.65,5.86,4.57,5.86,3.79,0,7.66-4.59,7.66-10.01Z"/>
  <path class="cls-1" d="m251.19,29.73h1.51l.91,11.53c.12,1.64.24,3.21.36,4.78h.15c.73-1.58,1.39-3.15,2.12-4.78l5.3-11.53h1.82l.81,11.53c.07,1.64.19,3.21.26,4.78h.15c.73-1.58,1.37-3.15,2.17-4.78l5.39-11.53h1.47l-8.31,17.65h-2.07l-.73-11c-.12-1.69-.13-3.58-.25-5.23h-.15c-.73,1.65-1.51,3.54-2.3,5.23l-5.03,11h-2.05l-1.53-17.65Z"/>
  <path class="cls-1" d="m273.73,44.55l1.07-.81c.99,1.54,2.77,2.79,5,2.79,2.43,0,4.51-1.71,4.51-3.7,0-1.42-.61-2.35-3.35-3.81-3.16-1.69-4.32-2.92-4.32-4.75,0-3,2.58-4.98,5.57-4.98,1.98,0,3.65.86,4.86,2.15l-.98.96c-.95-1.01-2.18-1.82-3.95-1.82-2.23,0-4.03,1.58-4.03,3.44,0,1.69,1.54,2.59,3.27,3.54,3.81,2.08,4.4,3.42,4.4,5.01,0,3.21-2.65,5.25-6.15,5.25-2.53,0-4.87-1.64-5.89-3.27Z"/>
  <path class="cls-1" d="m298.79,29.29c3.82,0,5.31,2.63,5.31,6.26,0,1.24-.27,2.37-.5,3.09h-12.3c-.95,5.54,1.76,7.89,5.28,7.89,1.56,0,3.14-.79,4.41-1.71l.67,1.1c-1.4,1.03-3.29,1.91-5.31,1.91-4.09,0-6.72-2.55-6.72-7.28,0-6.7,4.65-11.25,9.17-11.25Zm3.69,8.13c.14-.69.21-1.33.21-2.1,0-2.37-1.04-4.72-4.04-4.72s-6.17,2.82-7.12,6.82h10.94Z"/>
  <path class="cls-1" d="m310.39,29.73h1.27l-.54,3.34h.15c1.46-2.09,3.26-3.78,5.52-3.78.5,0,1.02.08,1.59.3l-.59,1.43c-.32-.16-.73-.29-1.38-.29-1.87,0-4.12,1.82-5.72,4.97l-2.32,11.68h-1.51l3.54-17.65Z"/>
</svg>