<svg width="138" height="202" viewBox="0 0 138 202" fill="none" xmlns="http://www.w3.org/2000/svg">
<path d="M75.1094 0H0V201.961H75.1094V0Z" fill="#3F3D56"/>
<path d="M137.699 0H74.2734V201.961H137.699V100.98V0Z" fill="#D2D2D2"/>
<path d="M118.391 187.654C118.01 186.95 117.67 186.224 117.374 185.48C116.072 182.22 118.595 179.627 118.703 179.518L118.802 179.418L118.8 179.279C118.771 177.471 118.074 134.908 115.985 126.541C114.099 118.986 108.263 116.923 106.903 116.54L106.906 116.503L100.195 115.641C102.707 99.0789 105.223 60.7811 76.792 52.8948C75.8061 52.6463 74.8013 52.4803 73.7879 52.3984L73.7266 53.0579C74.7003 53.138 75.6659 53.2968 76.614 53.5328C104.546 61.2808 102.025 99.1795 99.5388 115.557L89.376 114.253C86.7293 112.766 83.7401 110.098 83.3892 102.937C87.0376 99.8692 89.3768 95.5208 89.9278 90.7821C89.9751 90.7877 90.0226 90.7905 90.0701 90.7905C91.5414 90.7905 92.7381 89.067 92.7381 86.9485C92.7381 84.8299 91.5414 83.1064 90.0701 83.1064C89.7741 83.0938 89.4849 83.1972 89.2637 83.3945C88.2438 80.003 86.282 76.9719 83.6071 74.6545C80.9321 72.3372 77.6544 70.8293 74.1561 70.3067L74.0618 70.9623C78.3189 71.5822 82.2107 73.7164 85.0252 76.9743C87.8397 80.2322 89.3886 84.396 89.3886 88.7038C89.3886 93.0116 87.8397 97.1754 85.0252 100.433C82.2107 103.691 78.3189 105.825 74.0618 106.445L74.1561 107.101C77.2891 106.646 80.2514 105.388 82.7554 103.448C83.2088 110.137 86.0591 112.987 88.4986 114.504C85.7105 118.322 81.1937 120.634 75.0617 121.37C74.7341 121.41 74.4066 121.443 74.0793 121.472L74.1384 122.132C74.4725 122.102 74.8065 122.068 75.1405 122.028C81.4722 121.268 86.1509 118.863 89.0501 114.879L89.1647 114.894C89.1862 114.905 89.208 114.918 89.2294 114.93L89.2435 114.904L106.192 117.079L101.311 173.638L101.31 173.656L101.31 173.675C101.31 173.677 101.323 174.197 101.323 175.112V175.189L101.323 175.189C101.349 180.181 101.105 185.169 100.594 190.134C100.047 195.057 99.2162 198.823 98.1244 201.336H89.5614C89.6028 200.557 89.7605 199.789 90.0294 199.057L90.7952 196.859L89.4477 198.756C88.6926 199.736 87.8025 200.605 86.804 201.336H74.1088V201.998H87.0197L87.1066 201.935C87.7906 201.435 88.4301 200.877 89.0181 200.267C88.9315 200.731 88.8909 201.202 88.8967 201.674L88.9028 201.998H112.407L112.484 201.953C113.892 201.128 113.892 199.604 113.892 196.838C113.892 195.103 115.055 193.937 116.288 192.703C116.936 192.095 117.524 191.425 118.043 190.702C119.095 189.121 119.052 188.902 118.391 187.654ZM89.4819 84.1089C89.7323 83.8407 89.7998 83.7688 90.0701 83.7688C91.1577 83.7688 92.0766 85.225 92.0766 86.9484C92.0766 88.6605 91.1703 90.1085 90.0921 90.128C90.0692 90.0696 90.0389 90.0144 90.0022 89.9637C90.0307 89.5464 90.0501 89.127 90.0501 88.7038C90.0489 87.1589 89.853 85.6204 89.4671 84.1246L89.4819 84.1089ZM103.396 179.328L101.421 188.561C101.866 183.839 101.968 179.226 101.984 176.508L103.396 179.328ZM117.493 190.335C116.997 191.02 116.437 191.657 115.82 192.235C114.547 193.51 113.23 194.828 113.23 196.838C113.23 199.552 113.191 200.716 112.224 201.336H98.8425C99.8994 198.781 100.706 195.07 101.242 190.29L101.95 189.247L104.092 179.239L101.985 175.032C101.984 174.258 101.974 173.775 101.972 173.677L106.845 117.211C108.275 117.635 113.585 119.658 115.344 126.701C117.357 134.768 118.091 176.475 118.136 179.157C117.634 179.722 115.449 182.447 116.76 185.726C117.065 186.492 117.414 187.24 117.806 187.964C118.367 189.022 118.367 189.022 117.493 190.335Z" fill="#3F3D56"/>
<path d="M74.2299 52.8687V126.845L59.7927 128.531L46.9265 130.038L42.4249 130.561V130.564L42.2133 130.588C42.2133 130.588 41.4691 128.306 40.8837 123.755C39.8716 115.888 39.3325 101.246 43.9464 79.9122C50.1017 51.4379 68.6535 52.0142 74.2299 52.8687Z" fill="#2F2E41"/>
<path d="M73.2389 188.04L74.2312 188.09V201.643H28.4453L29.421 197.953L30.6514 193.303L36.3668 187.58L37.6633 186.281L73.2389 188.04Z" fill="#2F2E41"/>
<path d="M74.2312 70.7796V106.577C71.7342 107.082 69.1593 107.058 66.6723 106.506C64.1853 105.953 61.8414 104.885 59.7918 103.37C57.7423 101.855 56.0325 99.9273 54.7726 97.7101C53.5128 95.493 52.7308 93.0361 52.4773 90.4978C52.2237 87.9594 52.5041 85.3961 53.3004 82.973C54.0967 80.5498 55.3912 78.3207 57.1005 76.4292C58.8098 74.5377 60.8959 73.0259 63.2243 71.9912C65.5528 70.9565 68.072 70.4219 70.6194 70.4219C71.7693 70.4204 72.9167 70.5291 74.046 70.7465C74.1088 70.7564 74.1683 70.7664 74.2312 70.7796Z" fill="#FFB9B9"/>
<path d="M74.2305 100.84V139.628L59.7932 128.532L51.3359 122.034L58.0932 118.957C58.3975 118.821 58.715 118.676 59.049 118.523C64.0864 116.231 64.9364 110.041 64.9199 106.027C64.9204 104.804 64.8331 103.583 64.6585 102.373L74.2305 100.84Z" fill="#FFB9B9"/>
<path d="M73.2384 121.779C73.5691 121.749 73.8999 121.716 74.2306 121.676V201.644H68.932C65.5616 200.621 62.9057 199.624 62.9057 199.624C62.9057 199.624 46.7783 197.517 41.87 198.219C41.5954 198.259 41.2713 198.305 40.9042 198.358C37.9439 198.782 32.3311 199.475 29.4205 197.954C26.5198 196.441 26.2982 192.731 34.0378 184.375C34.7158 183.643 35.4567 182.874 36.2605 182.069C36.2605 182.069 46.7783 175.048 45.3759 172.941C43.9736 170.835 41.87 161.707 41.87 161.707L41.9031 159.901L42.4256 130.566V130.563L42.5712 122.385L58.0934 118.957L60.8022 120.981C64.8882 121.841 69.0762 122.11 73.2384 121.779Z" fill="#575A89"/>
<path d="M45.3767 156.789C44.2951 157.196 43.111 158.329 41.9038 159.899C36.8367 166.474 31.3528 180.663 31.3528 180.663C31.3528 180.663 33.2017 182.514 34.0385 184.372C34.4652 185.32 34.6306 186.27 34.1576 186.982C32.7552 189.089 34.1576 186.982 35.56 186.982C36.1057 186.982 36.3339 187.194 36.367 187.579C36.4166 188.181 35.9866 189.208 35.56 190.493C34.8588 192.6 35.56 193.302 39.0659 194.004C42.5719 194.706 40.4683 194.706 40.4683 196.813C40.4864 197.355 40.6362 197.885 40.9049 198.356C41.5199 199.387 42.3233 200.293 43.2731 201.026C43.1342 201.036 43.0019 201.046 42.8696 201.059C41.9319 201.132 41.0078 201.328 40.121 201.642H22.1712C22.5047 201.253 22.7647 200.806 22.9385 200.324C23.6397 198.217 18.0302 194.706 17.329 194.004C16.6278 193.302 16.6278 190.493 17.329 187.685C18.0302 184.876 16.6278 184.876 15.2254 183.472C13.823 182.067 15.2254 179.961 16.6278 177.854C18.0302 175.748 18.0302 176.45 15.9266 172.237C13.823 168.024 18.0302 167.322 18.0302 167.322C18.0302 167.322 27.1457 148.363 32.054 137.128C35.2987 129.699 38.8543 125.645 40.8851 123.754C41.4077 123.25 41.972 122.791 42.5719 122.383L46.0779 123.787C46.0779 123.787 46.4847 126.341 46.9279 130.034C48.0326 139.175 49.3721 155.289 45.3767 156.789Z" fill="#575A89"/>
<path d="M74.231 64.7812V70.4417C74.1714 70.5443 74.1086 70.6437 74.0458 70.7464C70.3877 76.7579 63.862 85.0216 53.8336 89.5294L52.9339 84.2399L51.0586 73.2172L74.231 64.7812Z" fill="#2F2E41"/>
</svg>
