<svg width="272" height="184" viewBox="0 0 272 184" fill="none" xmlns="http://www.w3.org/2000/svg">
<path d="M32.0923 42.1914H31.3711V80.7764H32.0923V42.1914Z" fill="#3F3D56"/>
<path d="M32.0923 92.2617H31.3711V126.213H32.0923V92.2617Z" fill="#3F3D56"/>
<path d="M86.1832 131.621H30.2891V132.342H86.1832V131.621Z" fill="#3F3D56"/>
<path d="M7.2134 141.359H6.49219V172.011H7.2134V141.359Z" fill="#3F3D56"/>
<path d="M97.7232 177.418H12.9805V178.139H97.7232V177.418Z" fill="#3F3D56"/>
<path d="M168.405 17.668H167.684V54.0893H168.405V17.668Z" fill="#3F3D56"/>
<path d="M162.272 59.8594H109.25V60.5806H162.272V59.8594Z" fill="#3F3D56"/>
<path d="M103.854 65.6328H103.133V114.315H103.854V65.6328Z" fill="#3F3D56"/>
<path d="M31.7319 92.6747C30.5194 92.6747 29.3342 92.3152 28.3261 91.6416C27.3179 90.968 26.5322 90.0105 26.0682 88.8904C25.6042 87.7702 25.4828 86.5376 25.7194 85.3484C25.9559 84.1593 26.5398 83.0669 27.3971 82.2096C28.2544 81.3523 29.3468 80.7684 30.5359 80.5319C31.7251 80.2953 32.9577 80.4167 34.0779 80.8807C35.198 81.3447 36.1555 82.1304 36.8291 83.1386C37.5027 84.1467 37.8622 85.3319 37.8622 86.5444C37.8604 88.1697 37.214 89.7279 36.0647 90.8772C34.9154 92.0265 33.3572 92.6729 31.7319 92.6747ZM31.7319 81.1353C30.6621 81.1353 29.6163 81.4525 28.7268 82.0469C27.8372 82.6412 27.1439 83.486 26.7345 84.4744C26.3251 85.4628 26.218 86.5504 26.4267 87.5997C26.6354 88.6489 27.1506 89.6127 27.9071 90.3692C28.6635 91.1257 29.6274 91.6409 30.6766 91.8496C31.7259 92.0583 32.8135 91.9512 33.8019 91.5418C34.7903 91.1324 35.6351 90.4391 36.2294 89.5495C36.8238 88.66 37.141 87.6142 37.141 86.5444C37.1394 85.1103 36.569 83.7354 35.555 82.7213C34.5409 81.7073 33.166 81.1369 31.7319 81.1353Z" fill="#3F3D56"/>
<path d="M7.21237 183.909C5.9999 183.909 4.81466 183.55 3.80654 182.876C2.79841 182.202 2.01267 181.245 1.54868 180.125C1.08469 179.005 0.963286 177.772 1.19983 176.583C1.43637 175.394 2.02023 174.301 2.87757 173.444C3.73491 172.587 4.82722 172.003 6.01639 171.766C7.20556 171.53 8.43817 171.651 9.55834 172.115C10.6785 172.579 11.6359 173.365 12.3095 174.373C12.9832 175.381 13.3427 176.566 13.3427 177.779C13.3409 179.404 12.6944 180.962 11.5452 182.112C10.3959 183.261 8.83768 183.907 7.21237 183.909ZM7.21237 172.37C6.14255 172.37 5.09675 172.687 4.20722 173.281C3.3177 173.876 2.62439 174.72 2.21499 175.709C1.80559 176.697 1.69847 177.785 1.90719 178.834C2.1159 179.883 2.63106 180.847 3.38754 181.604C4.14402 182.36 5.10783 182.875 6.1571 183.084C7.20637 183.293 8.29395 183.186 9.28234 182.776C10.2707 182.367 11.1155 181.673 11.7099 180.784C12.3042 179.894 12.6215 178.849 12.6215 177.779C12.6199 176.345 12.0495 174.97 11.0354 173.956C10.0214 172.942 8.64646 172.371 7.21237 172.37Z" fill="#3F3D56"/>
<path d="M32.0939 137.75C35.2805 137.75 37.8637 135.167 37.8637 131.981C37.8637 128.794 35.2805 126.211 32.0939 126.211C28.9074 126.211 26.3242 128.794 26.3242 131.981C26.3242 135.167 28.9074 137.75 32.0939 137.75Z" fill="#2862BC"/>
<path d="M240.884 86.1836H181.023V86.9048H240.884V86.1836Z" fill="#3F3D56"/>
<path d="M175.616 92.2617H174.895V126.213H175.616V92.2617Z" fill="#3F3D56"/>
<path d="M169.125 131.621H121.164V132.342H169.125V131.621Z" fill="#3F3D56"/>
<path d="M255.311 134.867H205.547V135.588H255.311V134.867Z" fill="#3F3D56"/>
<path d="M200.499 141.359H199.777V172.011H200.499V141.359Z" fill="#3F3D56"/>
<path d="M194.008 177.418H109.266V178.139H194.008V177.418Z" fill="#3F3D56"/>
<path d="M103.854 149.652H103.133V172.01H103.854V149.652Z" fill="#3F3D56"/>
<path d="M175.254 92.3168C178.441 92.3168 181.024 89.7336 181.024 86.5471C181.024 83.3605 178.441 80.7773 175.254 80.7773C172.068 80.7773 169.484 83.3605 169.484 86.5471C169.484 89.7336 172.068 92.3168 175.254 92.3168Z" fill="#2862BC"/>
<path d="M168.044 65.9911C166.832 65.9911 165.647 65.6316 164.639 64.958C163.63 64.2844 162.845 63.3269 162.381 62.2068C161.917 61.0866 161.795 59.854 162.032 58.6648C162.268 57.4757 162.852 56.3833 163.71 55.526C164.567 54.6687 165.659 54.0848 166.848 53.8483C168.038 53.6117 169.27 53.7331 170.39 54.1971C171.511 54.6611 172.468 55.4468 173.142 56.455C173.815 57.4631 174.175 58.6483 174.175 59.8608C174.173 61.4861 173.526 63.0443 172.377 64.1936C171.228 65.3429 169.67 65.9893 168.044 65.9911ZM168.044 54.4517C166.975 54.4517 165.929 54.7689 165.039 55.3633C164.15 55.9576 163.456 56.8024 163.047 57.7908C162.638 58.7792 162.53 59.8668 162.739 60.9161C162.948 61.9653 163.463 62.9291 164.22 63.6856C164.976 64.4421 165.94 64.9573 166.989 65.166C168.038 65.3747 169.126 65.2676 170.114 64.8582C171.103 64.4488 171.948 63.7555 172.542 62.8659C173.136 61.9764 173.454 60.9306 173.454 59.8608C173.452 58.4267 172.882 57.0518 171.867 56.0377C170.853 55.0237 169.478 54.4533 168.044 54.4517Z" fill="#3F3D56"/>
<path d="M103.494 65.9911C102.281 65.9911 101.096 65.6316 100.088 64.958C99.0796 64.2844 98.2939 63.3269 97.8299 62.2068C97.3659 61.0866 97.2445 59.854 97.4811 58.6648C97.7176 57.4757 98.3015 56.3833 99.1588 55.526C100.016 54.6687 101.108 54.0848 102.298 53.8483C103.487 53.6117 104.719 53.7331 105.84 54.1971C106.96 54.6611 107.917 55.4468 108.591 56.455C109.264 57.4631 109.624 58.6483 109.624 59.8608C109.622 61.4861 108.976 63.0443 107.826 64.1936C106.677 65.3429 105.119 65.9893 103.494 65.9911ZM103.494 54.4517C102.424 54.4517 101.378 54.7689 100.488 55.3633C99.5989 55.9576 98.9057 56.8024 98.4963 57.7908C98.0868 58.7792 97.9797 59.8668 98.1884 60.9161C98.3971 61.9653 98.9123 62.9291 99.6688 63.6856C100.425 64.4421 101.389 64.9573 102.438 65.166C103.488 65.3747 104.575 65.2676 105.564 64.8582C106.552 64.4488 107.397 63.7555 107.991 62.8659C108.585 61.9764 108.903 60.9306 108.903 59.8608C108.901 58.4267 108.331 57.0518 107.317 56.0377C106.303 55.0237 104.928 54.4533 103.494 54.4517Z" fill="#3F3D56"/>
<path d="M199.775 141.718C198.562 141.718 197.377 141.358 196.369 140.685C195.361 140.011 194.575 139.054 194.111 137.933C193.647 136.813 193.526 135.581 193.762 134.391C193.999 133.202 194.583 132.11 195.44 131.253C196.297 130.395 197.39 129.811 198.579 129.575C199.768 129.338 201.001 129.46 202.121 129.924C203.241 130.388 204.198 131.173 204.872 132.182C205.546 133.19 205.905 134.375 205.905 135.587C205.903 137.213 205.257 138.771 204.108 139.92C202.958 141.069 201.4 141.716 199.775 141.718ZM199.775 130.178C198.705 130.178 197.659 130.495 196.77 131.09C195.88 131.684 195.187 132.529 194.778 133.517C194.368 134.506 194.261 135.593 194.47 136.643C194.678 137.692 195.194 138.656 195.95 139.412C196.707 140.169 197.67 140.684 198.72 140.893C199.769 141.101 200.856 140.994 201.845 140.585C202.833 140.175 203.678 139.482 204.272 138.593C204.867 137.703 205.184 136.657 205.184 135.587C205.182 134.153 204.612 132.778 203.598 131.764C202.584 130.75 201.209 130.18 199.775 130.178Z" fill="#3F3D56"/>
<path d="M199.778 183.551C202.964 183.551 205.547 180.968 205.547 177.781C205.547 174.595 202.964 172.012 199.778 172.012C196.591 172.012 194.008 174.595 194.008 177.781C194.008 180.968 196.591 183.551 199.778 183.551Z" fill="#2862BC"/>
<path d="M103.494 183.909C102.281 183.909 101.096 183.55 100.088 182.876C99.0796 182.202 98.2939 181.245 97.8299 180.125C97.3659 179.005 97.2445 177.772 97.4811 176.583C97.7176 175.394 98.3015 174.301 99.1588 173.444C100.016 172.587 101.108 172.003 102.298 171.766C103.487 171.53 104.719 171.651 105.84 172.115C106.96 172.579 107.917 173.365 108.591 174.373C109.264 175.381 109.624 176.566 109.624 177.779C109.622 179.404 108.976 180.962 107.826 182.112C106.677 183.261 105.119 183.907 103.494 183.909ZM103.494 172.37C102.424 172.37 101.378 172.687 100.488 173.281C99.5989 173.876 98.9057 174.72 98.4963 175.709C98.0868 176.697 97.9797 177.785 98.1884 178.834C98.3971 179.883 98.9123 180.847 99.6688 181.604C100.425 182.36 101.389 182.875 102.438 183.084C103.488 183.293 104.575 183.186 105.564 182.776C106.552 182.367 107.397 181.673 107.991 180.784C108.585 179.894 108.903 178.849 108.903 177.779C108.901 176.345 108.331 174.97 107.317 173.956C106.303 172.942 104.928 172.371 103.494 172.37Z" fill="#3F3D56"/>
<path d="M174.896 138.112C173.683 138.112 172.498 137.753 171.49 137.079C170.482 136.405 169.696 135.448 169.232 134.328C168.768 133.208 168.647 131.975 168.883 130.786C169.12 129.597 169.704 128.504 170.561 127.647C171.418 126.79 172.511 126.206 173.7 125.969C174.889 125.733 176.122 125.854 177.242 126.318C178.362 126.782 179.32 127.568 179.993 128.576C180.667 129.584 181.026 130.769 181.026 131.982C181.024 133.607 180.378 135.165 179.229 136.315C178.079 137.464 176.521 138.11 174.896 138.112ZM174.896 126.573C173.826 126.573 172.78 126.89 171.891 127.484C171.001 128.079 170.308 128.924 169.899 129.912C169.489 130.9 169.382 131.988 169.591 133.037C169.799 134.086 170.315 135.05 171.071 135.807C171.828 136.563 172.791 137.078 173.841 137.287C174.89 137.496 175.978 137.389 176.966 136.979C177.954 136.57 178.799 135.877 179.393 134.987C179.988 134.098 180.305 133.052 180.305 131.982C180.303 130.548 179.733 129.173 178.719 128.159C177.705 127.145 176.33 126.574 174.896 126.573Z" fill="#3F3D56"/>
<path d="M7.21215 123.328C5.78572 123.328 4.39133 123.751 3.2053 124.544C2.01927 125.336 1.09486 126.462 0.548989 127.78C0.00311876 129.098 -0.139698 130.548 0.138585 131.947C0.416867 133.346 1.10376 134.631 2.1124 135.64C3.12103 136.649 4.40611 137.336 5.80513 137.614C7.20415 137.892 8.65427 137.749 9.97212 137.203C11.29 136.658 12.4164 135.733 13.2088 134.547C14.0013 133.361 14.4243 131.967 14.4243 130.54C14.4187 128.629 13.6571 126.798 12.3057 125.447C10.9544 124.095 9.12321 123.334 7.21215 123.328ZM7.21215 125.492C7.64008 125.492 8.0584 125.619 8.41421 125.856C8.77002 126.094 9.04734 126.432 9.2111 126.827C9.37486 127.223 9.4177 127.658 9.33422 128.078C9.25073 128.497 9.04467 128.883 8.74208 129.185C8.43949 129.488 8.05396 129.694 7.63425 129.777C7.21455 129.861 6.77951 129.818 6.38416 129.654C5.9888 129.491 5.65089 129.213 5.41314 128.857C5.1754 128.502 5.04851 128.083 5.04851 127.655C5.05042 127.082 5.27899 126.533 5.68433 126.128C6.08968 125.722 6.63891 125.494 7.21215 125.492ZM7.21215 135.908C6.35743 135.904 5.51656 135.692 4.76249 135.289C4.00842 134.887 3.36391 134.306 2.88486 133.599C2.91954 132.156 5.76972 131.362 7.21215 131.362C8.65458 131.362 11.5048 132.156 11.5394 133.599C11.0599 134.306 10.4152 134.886 9.66127 135.288C8.90732 135.69 8.06673 135.903 7.21215 135.908Z" fill="#3F3D56"/>
<path d="M32.095 24.8828C30.6685 24.8828 29.2741 25.3058 28.0881 26.0983C26.9021 26.8908 25.9777 28.0171 25.4318 29.335C24.8859 30.6528 24.7431 32.103 25.0214 33.502C25.2997 34.901 25.9866 36.1861 26.9952 37.1947C28.0038 38.2034 29.2889 38.8903 30.6879 39.1685C32.087 39.4468 33.5371 39.304 34.8549 38.7581C36.1728 38.2123 37.2992 37.2878 38.0916 36.1018C38.8841 34.9158 39.3071 33.5214 39.3071 32.095C39.3015 30.1839 38.5399 28.3527 37.1885 27.0014C35.8372 25.6501 34.006 24.8884 32.095 24.8828ZM32.095 27.0465C32.5229 27.0465 32.9412 27.1734 33.297 27.4111C33.6528 27.6488 33.9301 27.9868 34.0939 28.3821C34.2577 28.7775 34.3005 29.2125 34.217 29.6322C34.1335 30.0519 33.9275 30.4374 33.6249 30.74C33.3223 31.0426 32.9368 31.2487 32.5171 31.3322C32.0974 31.4157 31.6623 31.3728 31.267 31.209C30.8716 31.0453 30.5337 30.768 30.296 30.4122C30.0582 30.0563 29.9313 29.638 29.9313 29.2101C29.9332 28.6369 30.1618 28.0876 30.5671 27.6823C30.9725 27.2769 31.5217 27.0484 32.095 27.0465ZM32.095 37.4625C31.2402 37.4586 30.3994 37.2462 29.6453 36.8438C28.8912 36.4414 28.2467 35.8611 27.7677 35.1532C27.8023 33.7108 30.6525 32.9167 32.095 32.9167C33.5374 32.9167 36.3876 33.7108 36.4223 35.1532C35.9427 35.8605 35.298 36.4404 34.5441 36.8428C33.7901 37.2451 32.9495 37.4578 32.095 37.4625Z" fill="#3F3D56"/>
<path d="M168.044 0C166.618 0 165.223 0.422987 164.037 1.21547C162.851 2.00795 161.927 3.13433 161.381 4.45218C160.835 5.77003 160.692 7.22015 160.971 8.61917C161.249 10.0182 161.936 11.3033 162.944 12.3119C163.953 13.3205 165.238 14.0074 166.637 14.2857C168.036 14.564 169.486 14.4212 170.804 13.8753C172.122 13.3294 173.248 12.405 174.041 11.219C174.833 10.033 175.256 8.63858 175.256 7.21215C175.251 5.30109 174.489 3.4699 173.138 2.11857C171.786 0.767239 169.955 0.00559389 168.044 0ZM168.044 2.16364C168.472 2.16364 168.89 2.29054 169.246 2.52829C169.602 2.76603 169.879 3.10395 170.043 3.4993C170.207 3.89465 170.25 4.32969 170.166 4.7494C170.083 5.1691 169.877 5.55463 169.574 5.85722C169.272 6.15981 168.886 6.36588 168.466 6.44936C168.047 6.53285 167.612 6.49 167.216 6.32624C166.821 6.16248 166.483 5.88516 166.245 5.52935C166.007 5.17354 165.881 4.75522 165.881 4.32729C165.882 3.75404 166.111 3.20482 166.516 2.79948C166.922 2.39413 167.471 2.16556 168.044 2.16364ZM168.044 12.5797C167.189 12.5758 166.349 12.3634 165.595 11.961C164.84 11.5586 164.196 10.9783 163.717 10.2704C163.752 8.82795 166.602 8.03392 168.044 8.03392C169.487 8.03392 172.337 8.82795 172.371 10.2704C171.892 10.9777 171.247 11.5576 170.493 11.96C169.739 12.3623 168.899 12.575 168.044 12.5797Z" fill="#3F3D56"/>
<path d="M250.982 78.9727C249.555 78.9727 248.161 79.3956 246.975 80.1881C245.789 80.9806 244.864 82.107 244.319 83.4248C243.773 84.7427 243.63 86.1928 243.908 87.5918C244.186 88.9908 244.873 90.2759 245.882 91.2846C246.891 92.2932 248.176 92.9801 249.575 93.2584C250.974 93.5367 252.424 93.3938 253.742 92.848C255.06 92.3021 256.186 91.3777 256.978 90.1917C257.771 89.0056 258.194 87.6112 258.194 86.1848C258.188 84.2737 257.427 82.4426 256.075 81.0912C254.724 79.7399 252.893 78.9783 250.982 78.9727ZM250.982 81.1363C251.41 81.1363 251.828 81.2632 252.184 81.5009C252.54 81.7387 252.817 82.0766 252.981 82.472C253.144 82.8673 253.187 83.3023 253.104 83.722C253.02 84.1418 252.814 84.5273 252.512 84.8299C252.209 85.1325 251.823 85.3385 251.404 85.422C250.984 85.5055 250.549 85.4627 250.154 85.2989C249.758 85.1351 249.42 84.8578 249.183 84.502C248.945 84.1462 248.818 83.7279 248.818 83.2999C248.82 82.7267 249.049 82.1775 249.454 81.7721C249.859 81.3668 250.408 81.1382 250.982 81.1363ZM250.982 91.5523C250.127 91.5484 249.286 91.336 248.532 90.9336C247.778 90.5312 247.133 89.9509 246.654 89.243C246.689 87.8006 249.539 87.0066 250.982 87.0066C252.424 87.0066 255.274 87.8006 255.309 89.243C254.829 89.9504 254.185 90.5303 253.431 90.9326C252.677 91.335 251.836 91.5477 250.982 91.5523Z" fill="#3F3D56"/>
<path d="M264.685 127.656C263.258 127.656 261.864 128.079 260.678 128.872C259.492 129.664 258.568 130.791 258.022 132.108C257.476 133.426 257.333 134.876 257.611 136.275C257.89 137.674 258.576 138.96 259.585 139.968C260.594 140.977 261.879 141.664 263.278 141.942C264.677 142.22 266.127 142.077 267.445 141.532C268.763 140.986 269.889 140.061 270.682 138.875C271.474 137.689 271.897 136.295 271.897 134.868C271.891 132.957 271.13 131.126 269.778 129.775C268.427 128.423 266.596 127.662 264.685 127.656ZM264.685 129.82C265.113 129.82 265.531 129.947 265.887 130.185C266.243 130.422 266.52 130.76 266.684 131.156C266.848 131.551 266.89 131.986 266.807 132.406C266.723 132.825 266.517 133.211 266.215 133.513C265.912 133.816 265.527 134.022 265.107 134.106C264.687 134.189 264.252 134.146 263.857 133.982C263.461 133.819 263.124 133.541 262.886 133.186C262.648 132.83 262.521 132.411 262.521 131.984C262.523 131.41 262.752 130.861 263.157 130.456C263.562 130.05 264.112 129.822 264.685 129.82ZM264.685 140.236C263.83 140.232 262.989 140.02 262.235 139.617C261.481 139.215 260.837 138.635 260.358 137.927C260.392 136.484 263.242 135.69 264.685 135.69C266.127 135.69 268.977 136.484 269.012 137.927C268.533 138.634 267.888 139.214 267.134 139.616C266.38 140.019 265.539 140.231 264.685 140.236Z" fill="#3F3D56"/>
<path d="M103.954 127.535L103.215 130.498C104.053 130.706 106.634 131.558 107.053 129.882C107.489 128.134 104.791 127.744 103.954 127.535Z" fill="#6C63FF"/>
<path d="M102.842 131.992L102.027 135.259C103.033 135.508 106.135 136.504 106.594 134.662C107.073 132.74 103.848 132.243 102.842 131.992Z" fill="#6C63FF"/>
<circle cx="102.956" cy="131.983" r="14.4243" fill="#2862BC"/>
</svg>
