<svg width="263" height="195" viewBox="0 0 263 195" fill="none" xmlns="http://www.w3.org/2000/svg">
<g clip-path="url(#clip0)">
<path d="M242.293 47.4017C212.443 5.93976 149.386 -10.879 87.3719 7.23521C54.5869 16.8117 22.976 35.9995 7.31047 73.1533C-20.6934 139.57 38.1043 160.782 76.5516 167.542C95.1426 170.811 112.652 176.302 128.653 183.779C157.439 197.229 208.392 209.148 246.815 153.12C274.663 112.511 262.176 75.0195 242.293 47.4017Z" fill="#F2F2F2"/>
<path d="M69.2344 55.605C69.1509 54.946 68.9821 54.3007 68.732 53.6852C68.7002 53.5688 68.6443 53.4603 68.5681 53.3666C68.4919 53.2729 68.397 53.1961 68.2894 53.141C68.1456 53.1037 67.9949 53.102 67.8503 53.1361L65.5955 53.4805C65.4068 53.4891 65.2261 53.5592 65.0811 53.68C64.7874 53.9883 65.0766 54.4847 65.0676 54.91C65.0575 55.3883 64.6318 55.7765 64.1701 55.9049C63.6989 55.9999 63.2128 55.9939 62.7441 55.8872L59.5913 55.3982C60.5199 55.1023 61.3464 54.5518 61.9764 53.8094C62.3913 53.3188 62.6121 52.4029 62.0125 52.1705C61.8343 52.1217 61.6485 52.1068 61.4648 52.1266C60.0364 52.1377 58.9123 50.9472 57.5751 50.4458C56.7192 50.1457 55.7901 50.1233 54.9208 50.382C54.0514 50.6407 53.2863 51.1672 52.7347 51.8862L54.4143 51.967C54.5723 51.9583 54.729 52 54.8617 52.0861C55.2297 52.3879 54.7721 52.9678 54.824 53.4405C54.8913 54.0546 55.7082 54.1857 56.324 54.2478C56.9398 54.3099 57.721 54.8093 57.4248 55.3518C54.3298 56.4159 51.1802 53.2716 47.9298 53.6587C47.1071 53.7566 46.3302 54.0792 45.5271 54.2821C40.6205 55.5212 35.5481 52.215 30.5358 52.9152C29.4215 53.1048 28.3263 53.3931 27.2633 53.7767C26.5811 54.0003 25.8695 54.2419 25.3739 54.7605C24.8782 55.279 24.6896 56.1658 25.1591 56.7079C23.8649 56.8143 22.562 56.6907 21.311 56.3428C21.6493 56.5305 21.9307 56.8057 22.1257 57.1394C22.3208 57.4731 22.4222 57.8531 22.4194 58.2394C20.3986 58.5683 18.4312 59.1671 16.5704 60.0196C16.9177 60.5961 17.3233 61.1355 17.781 61.6293L15.2227 63.2699C16.087 63.4873 16.5338 64.6637 16.0312 65.3985C16.9274 65.0005 17.4828 63.971 18.4412 63.7623C19.069 63.6255 19.7079 63.8819 20.3035 64.1227C20.8991 64.3635 21.5537 64.5971 22.1703 64.4163C22.7868 64.2356 23.2416 63.4376 22.8498 62.9291C25.4852 62.1616 28.2088 61.7368 30.9532 61.6654C31.1649 61.6389 31.3796 61.6795 31.5669 61.7816C31.9241 62.029 31.8301 62.5634 31.8109 62.997C31.7917 63.4306 32.1302 64.0004 32.5184 63.805C32.0617 64.2003 32.4521 64.9446 32.8903 65.3603C33.3285 65.7761 33.8567 66.3497 33.5884 66.8905C33.5184 67.0316 33.3997 67.1446 33.3323 67.287C33.1334 67.7074 33.4492 68.1975 33.8216 68.4767C34.194 68.7558 34.6502 68.9509 34.9089 69.3375C35.1676 69.7241 35.0501 70.4008 34.5875 70.4548L33.2726 68.7884C32.8234 69.2533 32.5154 69.8359 32.3844 70.4685C33.7787 71.6062 33.9884 73.922 32.8212 75.2908C32.2246 75.9904 31.3764 76.4154 30.636 76.961C29.8956 77.5067 29.2105 78.2836 29.2124 79.2023C29.2156 80.7893 29.0857 82.2638 29.6815 83.7352C30.7801 86.4483 32.0486 89.0899 33.4793 91.6441C33.855 92.3149 34.3405 93.05 35.1016 93.1655C34.1398 90.8281 33.2739 88.4543 32.504 86.0442C33.0054 86.0461 33.5849 86.0859 33.8789 86.4914C34.1223 86.8272 34.07 87.2837 34.1456 87.6913C34.2418 88.0861 34.4023 88.4626 34.6205 88.8056L39.2138 96.9728C39.5946 97.6498 40.0314 98.3766 40.7591 98.6508C41.2244 98.826 41.7627 98.793 42.191 99.0454C42.5266 99.2432 42.7527 99.5944 43.0949 99.7807C44.0625 100.308 45.4081 99.2971 46.3123 99.9262C46.5709 100.106 46.7354 100.392 46.9736 100.598C47.8088 101.32 49.1788 100.837 50.1429 101.375C50.7642 101.722 51.0862 102.416 51.4176 103.046C52.2478 104.621 53.591 106.165 55.3701 106.29C55.929 106.33 56.4998 106.224 57.0461 106.348C57.5924 106.472 58.1301 106.948 58.0424 107.5C57.8921 108.447 58.3608 109.484 58.2349 110.435C58.0056 112.166 55.5454 112.927 55.3341 114.66C55.2878 115.04 55.3603 115.432 55.2697 115.803C55.1587 116.258 54.8162 116.629 54.6944 117.082C54.4637 117.94 55.0793 118.793 55.7556 119.37C56.4319 119.947 57.2386 120.445 57.6084 121.253C57.9992 122.106 57.8072 123.102 57.9343 124.032C58.2118 126.062 59.9688 127.568 61.7769 128.538C62.3278 128.834 62.9193 129.12 63.2759 129.633C63.7413 130.303 63.6949 131.185 63.8503 131.985C64.2309 133.945 65.8833 135.559 65.9303 137.554C65.9636 138.973 65.1738 140.259 64.7021 141.597C64.2598 142.879 64.0997 144.241 64.2328 145.591C64.3659 146.94 64.7891 148.245 65.4734 149.417C65.8263 150.011 66.2484 150.572 66.498 151.217C66.9435 152.368 66.799 153.676 67.2098 154.839C67.7528 156.378 69.2451 157.648 69.1023 159.273C69.7797 160.677 71.2757 161.367 72.78 161.785L75.4761 162.535C75.9923 162.678 76.5318 162.823 77.0574 162.719C77.5831 162.615 78.0847 162.179 78.0712 161.644C76.7491 161.347 75.3846 161.03 74.2947 160.226C73.2048 159.422 72.4583 157.99 72.8718 156.702C73.0635 156.104 73.4714 155.414 73.0836 154.921C72.8616 154.638 72.4555 154.564 72.205 154.306C71.8144 153.904 71.9486 153.228 72.2295 152.743C72.5103 152.258 72.9162 151.825 73.0295 151.276C73.0867 150.969 73.0485 150.652 72.92 150.368C72.7915 150.083 72.5789 149.844 72.3107 149.684C72.8106 149.495 73.2653 149.204 73.6452 148.829C73.9961 148.429 74.1582 147.812 73.8821 147.358C74.7019 147.461 75.6697 147.512 76.2079 146.886C76.6376 146.386 76.6081 145.639 76.4383 145.003C76.2685 144.366 75.9815 143.748 75.9726 143.089C77.8637 143.179 79.7589 143.115 81.6396 142.897C81.3676 141.983 80.7496 141.211 79.9166 140.744C80.7684 140.6 81.5443 139.582 81.8134 138.762C82.0825 137.943 82.0139 137.05 81.8476 136.204C81.7837 135.986 81.7749 135.756 81.8221 135.534C81.918 135.229 82.2183 135.043 82.4961 134.884L86.7239 132.46C86.9762 132.334 87.2049 132.165 87.4 131.962C87.8429 131.442 87.7773 130.658 87.5505 130.015C87.3237 129.372 86.9604 128.767 86.8731 128.09C86.6118 126.067 88.7814 124.615 89.5137 122.711C89.801 121.964 89.8596 121.151 89.9152 120.353C89.9749 119.495 89.9793 118.499 89.3196 117.946C88.6871 117.416 87.6989 117.534 87.0371 117.041C86.4304 116.589 86.221 115.712 85.5582 115.347C84.9562 115.016 84.2015 115.226 83.532 115.07C82.3532 114.796 81.6114 113.44 80.4075 113.314C79.7282 113.243 78.9595 113.575 78.4028 113.18C77.9122 112.832 77.8926 112.133 77.7992 111.539C77.6356 110.617 77.1927 109.767 76.5303 109.104C75.8679 108.44 75.0177 107.996 74.0943 107.829C73.394 107.717 72.6317 107.76 72.0359 107.376C71.4326 106.987 71.156 106.258 70.6821 105.72C69.9183 104.851 68.7154 104.543 67.5886 104.278L63.0051 103.203C62.1915 103.012 61.1427 102.911 60.706 103.622C60.5768 103.893 60.4853 104.18 60.4341 104.476C60.2705 105.011 59.9412 105.48 59.4936 105.816C59.0461 106.153 58.5032 106.339 57.943 106.348C57.5589 105.693 56.9366 105.213 56.2059 105.006C55.7412 104.877 55.2437 104.862 54.8004 104.672C54.559 104.554 54.3442 104.389 54.1691 104.185C53.994 103.982 53.8623 103.745 53.7821 103.489C53.7019 103.233 53.6749 102.964 53.7027 102.697C53.7305 102.43 53.8125 102.172 53.9437 101.938C54.208 101.469 54.31 100.925 54.2341 100.392C54.1582 99.8586 53.9086 99.365 53.5238 98.9874C52.7443 98.2889 51.6168 98.1202 50.5716 98.19C50.2979 97.5938 50.7556 96.9212 51.2488 96.4879C51.742 96.0546 52.3409 95.6287 52.4483 94.9817C52.6173 93.9639 51.3163 93.1909 50.3286 93.4944C49.3408 93.7979 48.7103 94.7555 48.2936 95.6996C48.0545 96.2412 47.8512 96.8116 47.474 97.2683C47.0968 97.725 46.4894 98.0521 45.9149 97.9055C45.1016 97.698 44.7874 96.7334 44.6074 95.9149C44.3659 94.8168 44.123 93.7034 44.1736 92.5803C44.2242 91.4571 44.6035 90.3039 45.4332 89.5436C46.7853 88.3046 48.8594 88.426 50.6841 88.6237C50.253 88.1389 50.3595 87.3218 50.8208 86.8654C51.0643 86.6495 51.3569 86.4961 51.6732 86.4185C51.9895 86.3409 52.32 86.3415 52.636 86.4203C53.1858 86.5345 53.6812 86.8301 54.0422 87.2595C54.5608 87.8906 54.7082 88.7426 55.1002 89.4589C55.4921 90.1752 56.3734 90.7861 57.0947 90.4018C57.7178 90.0699 57.8167 89.2075 57.6616 88.5198C57.5065 87.832 57.1772 87.1633 57.2334 86.4606C57.3405 85.1197 58.733 84.3126 59.9618 83.7604C61.1905 83.2082 62.5976 82.4655 62.7922 81.1345C62.7989 80.8739 62.8482 80.6161 62.9381 80.3714C63.0743 80.1552 63.2637 79.9774 63.4882 79.8549C67.0744 77.4893 70.7203 75.0947 74.8192 73.802C75.0324 73.7348 75.0574 73.8095 75.2748 73.7568C75.5789 73.5814 75.3774 73.0959 75.0858 72.9004C74.7942 72.7049 74.4044 72.5549 74.3304 72.2121C74.276 71.9601 74.4247 71.7127 74.4634 71.4578C74.5583 70.8315 73.8077 70.2533 73.2248 70.5037C72.8956 70.0684 73.5471 69.5627 74.0739 69.4179C75.6557 68.9833 77.2796 68.7185 78.9177 68.628C79.1068 68.598 79.3004 68.6309 79.4689 68.7216C79.744 68.9119 79.7089 69.3482 79.5139 69.6198C79.3189 69.8913 79.0156 70.0618 78.7726 70.2916C78.5071 70.5497 78.3178 70.8757 78.2252 71.234C78.1326 71.5922 78.1404 71.9689 78.2477 72.3231C79.1029 72.7573 80.0327 73.2043 80.9799 73.0513C81.927 72.8983 82.7677 71.8361 82.3225 70.9876C81.9079 70.1976 80.6626 70.0194 80.4484 69.1535C80.1977 68.1397 81.6354 67.238 81.3116 66.2451C81.1697 65.8102 80.7355 65.5542 80.4022 65.2402C80.0087 64.8552 79.741 64.3604 79.6343 63.8208C79.5277 63.2812 79.587 62.722 79.8044 62.2166C79.2617 62.3119 78.704 62.2759 78.178 62.1116C77.6521 61.9473 77.1733 61.6596 76.7818 61.2724C76.0588 60.5441 75.482 59.3952 74.4554 59.4278C73.5133 59.4577 72.7018 60.5548 71.8208 60.2201C71.6041 60.1378 71.3756 59.9702 71.1656 60.0684C71.0968 60.113 71.0391 60.1726 70.9967 60.2428C70.9544 60.3129 70.9286 60.3918 70.9212 60.4733C70.6974 61.5417 71.0825 62.759 70.4991 63.6822C69.8643 64.6868 68.396 64.8261 67.6265 65.732C67.2087 66.2238 67.0469 66.8864 66.6629 67.4049C66.2789 67.9234 65.4639 68.253 65.0031 67.8012C65.2296 67.3364 65.2914 66.8088 65.1785 66.3044C65.0656 65.8 64.7847 65.3488 64.3816 65.0245C63.9538 64.7458 63.4926 64.5219 63.0089 64.358C62.4684 64.1296 61.9542 63.8436 61.4754 63.5048C61.2355 63.3604 61.0406 63.1522 60.9124 62.9036C60.811 62.5922 60.8247 62.2549 60.9509 61.9527C61.1846 61.284 61.5968 60.6917 62.143 60.2397C62.6893 59.7878 63.3489 59.4934 64.0505 59.3883C64.6641 59.3049 65.3782 59.3343 65.7842 58.8677C65.999 58.6208 66.1118 58.2475 66.4236 58.1472C66.6231 58.1072 66.8302 58.1326 67.014 58.2198L69.304 59.0244C69.5596 59.1395 69.8408 59.1859 70.1198 59.159C70.2582 59.1404 70.3844 59.0703 70.4731 58.9627C70.5618 58.8551 70.6065 58.7179 70.5981 58.5788C70.5249 58.1992 69.9398 58.017 69.993 57.6341C70.0228 57.5101 70.0897 57.3979 70.1847 57.3126C71.0111 56.4345 72.0218 55.7497 73.1445 55.3072C74.2671 54.8647 75.4739 54.6754 76.6783 54.7529C76.9674 55.2268 76.5102 55.7879 76.1299 56.1924C75.7495 56.5969 75.4438 57.3197 75.9038 57.6311C76.0924 57.7271 76.302 57.7743 76.5136 57.7682C77.0774 57.8443 77.6253 58.0102 78.1366 58.2595C78.9279 58.6033 79.7041 58.9794 80.465 59.3879C80.3978 58.8871 80.3337 58.3594 80.5239 57.8911C80.714 57.4228 81.2545 57.0555 81.7266 57.2379C82.1816 57.4137 82.415 58.015 82.8997 58.0701C83.5463 58.1436 83.8014 57.1901 83.5313 56.5991C83.2612 56.008 82.7266 55.5132 82.6819 54.8651C82.6518 54.4279 82.8185 53.8856 82.4686 53.6209C82.3441 53.5414 82.2028 53.4919 82.0558 53.4764L73.3196 51.8717C72.8008 51.7764 72.0513 51.8494 72.0283 52.3755C72.0155 52.6691 72.2782 52.9596 72.1618 53.2295C72.0376 53.5177 71.6296 53.4913 71.3324 53.5932C70.8712 53.7514 70.6398 54.2979 70.6841 54.7826C70.7652 55.2642 70.9521 55.722 71.2313 56.123C70.6631 55.8858 69.8027 55.8422 69.2344 55.605Z" fill="#3F3D56"/>
<path d="M62.2619 48.2016C61.711 48.0196 61.1174 48.0111 60.5615 48.1773C60.0056 48.3435 59.5144 48.6763 59.1544 49.1305C59.0106 49.3196 58.8897 49.5802 59.0102 49.7849C59.1828 50.0784 59.6227 49.9625 59.9471 49.8575C60.4238 49.6875 60.9427 49.6751 61.427 49.8223C61.7315 49.9266 62.004 50.1111 62.3099 50.2115C62.4588 50.2737 62.6218 50.2942 62.7815 50.2709C62.9412 50.2476 63.0916 50.1814 63.2164 50.0793C63.4264 49.8656 63.4395 49.5333 63.4399 49.234C63.4545 49.1339 63.4464 49.0317 63.4164 48.9351C63.3864 48.8384 63.3351 48.7497 63.2664 48.6753C63.1439 48.6045 63.0063 48.5639 62.865 48.5568C62.5485 48.4983 62.2624 48.3314 62.056 48.0849" fill="#3F3D56"/>
<path d="M65.4111 47.3253C65.2878 47.3186 65.1649 47.3437 65.0541 47.3981C64.9434 47.4525 64.8485 47.5345 64.7786 47.6361C64.7088 47.7377 64.6663 47.8556 64.6552 47.9783C64.6442 48.101 64.665 48.2246 64.7156 48.337C65.0942 48.44 65.4897 48.4658 65.8786 48.4127C66.0725 48.3826 66.2532 48.2959 66.3978 48.1635C66.5425 48.0312 66.6446 47.859 66.6914 47.6687C66.2337 47.7519 65.7613 47.6618 65.3664 47.4161" fill="#3F3D56"/>
<path d="M75.9823 45.866C74.9518 46.0847 73.9507 46.4241 73 46.8772C73.4482 47.0492 73.8292 47.3603 74.0868 47.7648C74.3445 48.1692 74.4652 48.6456 74.4311 49.1237C74.3909 49.3072 74.3955 49.4977 74.4447 49.6791C74.5542 49.9442 74.8716 50.0436 75.1506 50.1116C75.6519 50.2639 76.1754 50.3306 76.699 50.3089C76.9609 50.2952 77.2152 50.2166 77.439 50.0801C77.6628 49.9436 77.8489 49.7535 77.9806 49.5271C78.0565 49.3123 78.1455 49.1023 78.2471 48.8983C78.916 47.8815 80.9029 49.1109 81.621 48.1282C81.8739 47.782 81.8508 47.261 82.1805 46.9866C82.3511 46.8671 82.5488 46.7918 82.7558 46.7675C84.1999 46.4811 85.6586 46.2738 87.1253 46.1463C87.8203 46.086 88.7262 45.8369 88.732 45.1405C86.1142 44.6274 83.4 44.9918 81.0112 46.1773C80.1505 46.6076 79.0122 47.5127 78.1832 46.9423C77.8728 46.7287 77.8881 46.1535 77.4609 45.9134C77.0241 45.6678 76.4459 45.7677 75.9823 45.866Z" fill="#3F3D56"/>
<path d="M84.5434 47.4618L85.7722 47.6975C85.546 47.6875 85.3202 47.7258 85.11 47.8098C84.8998 47.8937 84.71 48.0215 84.5532 48.1845C84.3964 48.3475 84.2762 48.542 84.2006 48.7551C84.1251 48.9681 84.0959 49.1948 84.1151 49.42C85.2658 49.8037 86.5204 49.4303 87.7325 49.4813C88.9447 49.5323 90.3551 50.3966 90.1481 51.5899C90.0856 51.9507 89.8768 52.3113 89.9853 52.6611C90.0615 52.9062 90.278 53.0802 90.4003 53.306C90.6551 53.7764 90.4515 54.3715 90.1298 54.7992C89.8081 55.2269 89.3757 55.5682 89.0933 56.0227C88.391 57.1531 88.79 58.6145 89.2084 59.8775C89.3294 60.3546 89.5527 60.7999 89.863 61.1824C90.4828 61.8402 91.4929 61.8974 92.3975 61.9106C93.0558 61.9202 93.81 61.8878 94.2264 61.3786C94.77 60.7138 94.3899 59.6766 94.7477 58.8965C95.0728 58.1879 95.9009 57.8839 96.6511 57.6683C98.0256 57.2733 99.4263 56.9376 100.726 56.341C102.339 55.6001 103.847 54.4456 105.621 54.3503C106.118 54.3235 106.628 54.3821 107.107 54.2461C107.587 54.11 108.042 53.6964 108.006 53.2003C107.975 52.7765 107.615 52.4653 107.335 52.1458C107.054 51.8263 106.834 51.335 107.092 50.9969L111.74 50.1303C111.411 49.2339 111.154 48.0534 111.911 47.4699C112.184 47.2594 112.55 47.1753 112.783 46.9208C113.179 46.487 112.98 45.7398 112.522 45.3709C112.064 45.002 111.446 44.9164 110.859 44.8678C108.821 44.6988 106.771 44.8104 104.729 44.9222C100.737 45.1406 96.7448 45.359 92.7527 45.5775C91.949 45.6214 91.0212 45.5543 90.2841 45.8279C89.6601 46.0596 89.2164 46.4849 88.5028 46.6343C87.1853 46.9102 85.7355 46.7235 84.5434 47.4618Z" fill="#3F3D56"/>
<path d="M106.556 57.1574C106.431 57.1376 106.303 57.1666 106.199 57.2383C106.129 57.3142 106.088 57.4113 106.082 57.5137C106.003 57.9652 106.097 58.43 106.347 58.8149C106.474 59.0038 106.649 59.1553 106.855 59.2536C107.06 59.3519 107.288 59.3936 107.515 59.3742C108.069 59.3038 108.476 58.8326 108.985 58.6027C109.769 58.2486 113.098 57.6967 110.795 56.4546C110.002 56.0266 109.489 56.4045 108.863 56.6864C108.151 57.0498 107.354 57.2127 106.556 57.1574Z" fill="#3F3D56"/>
<path d="M126.728 46.76C126.459 46.8697 126.234 47.0652 126.088 47.3159C126.021 47.4433 126.005 47.5915 126.045 47.73C126.084 47.8685 126.175 47.9867 126.299 48.06C126.399 48.0964 126.506 48.1133 126.613 48.1097L127.706 48.1423C128.171 48.1562 128.751 48.2549 128.876 48.7018C128.969 49.0336 128.761 49.46 129.011 49.6971C129.119 49.7801 129.248 49.8304 129.383 49.8419C129.744 49.9343 130.12 49.9464 130.485 49.8774C131.281 49.6644 130.863 49.1797 131.113 48.7481C131.497 48.0877 131.43 48.4874 132.106 48.1089C132.605 47.8294 133.25 47.3224 132.833 46.61C132.109 45.3711 127.797 46.2278 126.728 46.76Z" fill="#3F3D56"/>
<path d="M148.312 46.1401L147.677 46.2247C146.245 46.4154 144.805 46.6079 143.426 47.0371C144.023 47.2727 144.649 47.4261 145.287 47.4931C145.639 47.5103 145.988 47.5598 146.33 47.641C146.939 47.822 147.553 48.2894 148.142 48.05C148.507 47.9016 148.626 47.5223 148.928 47.3214C149.137 47.1826 149.928 46.9579 150.017 46.8179C150.732 45.6855 148.862 46.0668 148.312 46.1401Z" fill="#3F3D56"/>
<path d="M151.101 49.0175C150.252 49.4909 149.466 50.0662 148.757 50.7305C148.459 51.0104 148.154 51.3586 148.181 51.7664C148.217 52.3084 148.796 52.6228 149.297 52.8346L151.327 53.6925C151.573 53.346 151.348 52.8678 151.093 52.5273C150.839 52.1869 150.536 51.793 150.649 51.3833C150.777 50.9158 151.348 50.7564 151.827 50.6759C152.607 50.5447 154.712 50.5552 154.459 49.3C154.161 47.821 151.884 48.5805 151.101 49.0175Z" fill="#3F3D56"/>
<path d="M150.693 132.718C150.5 133.276 150.482 133.934 150.816 134.422C151.191 134.969 151.942 135.173 152.591 135.034C153.238 134.862 153.814 134.492 154.239 133.976C154.628 133.544 154.948 133.055 155.187 132.525C155.522 131.7 155.757 130.839 155.89 129.959L156.52 126.656C156.661 125.918 156.655 123.654 155.296 124.392C154.925 124.593 154.065 126.184 153.676 126.635C152.975 127.448 152.882 128.236 152.513 129.221C152.05 130.455 151.121 131.483 150.693 132.718Z" fill="#3F3D56"/>
<path d="M222.485 149.622C222.041 149.448 221.609 149.243 221.194 149.008C220.778 150.15 220.556 151.354 220.539 152.57L223.583 150.851C224.04 150.592 224.559 150.233 224.549 149.708C224.554 149.643 224.54 149.578 224.511 149.52C224.481 149.463 224.436 149.414 224.381 149.379C224.314 149.352 224.24 149.343 224.168 149.354C223.717 149.392 223.305 149.613 222.879 149.767C222.454 149.922 221.956 150.003 221.565 149.774" fill="#3F3D56"/>
<path d="M238.539 150.64C238.205 150.731 237.879 150.848 237.563 150.99C236.865 151.345 236.39 152.018 235.761 152.485C235.16 152.933 234.436 153.178 233.725 153.417C233.516 153.601 233.612 153.973 233.839 154.135C234.083 154.273 234.363 154.336 234.643 154.315C235.381 154.331 236.159 154.338 236.806 153.982C237.17 153.746 237.511 153.476 237.824 153.176C238.581 152.546 239.489 152.13 240.388 151.729C240.715 151.605 241.017 151.425 241.281 151.196C241.846 150.64 241.886 149.783 241.071 149.594C240.413 149.441 239.166 150.438 238.539 150.64Z" fill="#3F3D56"/>
<path d="M245.632 146.014C245.669 145.632 245.618 145.246 245.483 144.886C245.349 144.527 245.134 144.202 244.856 143.938C244.847 144.702 244.824 145.517 244.393 146.149C244.086 146.6 243.605 146.904 243.268 147.334C242.932 147.763 242.783 148.443 243.177 148.82C243.429 149.011 243.737 149.117 244.053 149.121C244.839 149.213 245.748 149.265 246.299 148.698C246.599 148.389 246.746 147.931 247.112 147.704C247.249 147.647 247.371 147.56 247.469 147.449C247.621 147.209 247.38 146.892 247.109 146.806C246.839 146.719 246.54 146.76 246.268 146.677C245.996 146.595 245.746 146.29 245.886 146.043" fill="#3F3D56"/>
<path d="M233.023 117.974C232.611 118.074 232.184 118.099 231.763 118.048C231.064 117.92 230.52 117.394 229.955 116.962C228.613 115.943 226.982 115.374 225.296 115.337C223.762 115.308 222.214 115.723 220.707 115.434C220.805 115.98 221.274 116.39 221.774 116.634C222.274 116.877 222.825 117 223.328 117.239C224.132 117.625 224.77 118.287 225.124 119.105C225.286 119.482 225.388 119.892 225.633 120.221C226.134 120.894 227.083 121.041 227.921 120.986C229.013 120.915 230.154 120.601 231.17 121.007C231.948 121.318 232.504 121.997 233.153 122.525C233.802 123.053 234.717 123.445 235.462 123.064C234.688 122.814 234.014 122.323 233.539 121.664C233.064 121.004 232.812 120.211 232.821 119.398C233.552 119.466 235.658 119.44 235.544 118.2C235.448 117.149 233.651 117.861 233.023 117.974Z" fill="#3F3D56"/>
<path d="M223.461 126.525C223.591 125.815 224.301 125.187 224.08 124.5C223.927 124.024 223.374 123.789 222.874 123.777C222.374 123.766 221.882 123.914 221.382 123.928C221.056 123.911 220.73 123.916 220.405 123.942C219.412 124.105 218.8 125.144 217.864 125.514C217.295 125.738 216.656 125.695 216.064 125.851C214.721 126.203 213.871 127.47 212.932 128.492C211.414 130.135 209.438 131.286 207.258 131.795C206.494 131.971 205.673 132.084 205.066 132.579C204.262 133.235 204.064 134.359 203.885 135.38C203.391 138.199 202.635 140.967 201.629 143.647L204.819 144.053C205.425 144.13 206.054 144.206 206.638 144.027C207.063 143.867 207.465 143.653 207.835 143.391C209.255 142.51 210.845 141.937 212.502 141.709C213.337 141.594 214.213 141.574 214.997 141.883C215.78 142.193 216.453 142.896 216.519 143.735C216.858 143.63 217.219 143.619 217.564 143.702C217.909 143.786 218.224 143.962 218.477 144.211C218.977 144.719 219.304 145.37 219.412 146.074C219.496 146.51 219.58 147.032 219.985 147.214C220.316 147.363 220.695 147.203 221.056 147.174C222.282 147.076 223.3 148.503 224.505 148.258C225.798 147.994 226.116 146.061 227.377 145.674C228.101 145.452 229.117 145.722 229.464 145.05C229.77 144.457 229.16 143.773 229.223 143.109C229.3 142.292 230.266 141.945 231.01 141.596C233.577 140.394 234.796 136.945 233.552 134.402C232.815 132.895 231.365 131.709 231.097 130.053C230.891 128.779 231.394 127.294 230.58 126.291C230.166 125.781 229.465 125.5 229.219 124.891C229.064 124.508 229.126 124.074 229.043 123.669C228.96 123.264 228.606 122.841 228.206 122.946C227.044 123.25 226.673 126.834 226.051 127.704C225.105 129.028 223.163 128.156 223.461 126.525Z" fill="#3F3D56"/>
<path d="M201.984 119.329C201.587 119.218 201.153 119.108 200.773 119.267C200.392 119.426 200.17 119.984 200.475 120.26C202.864 120.167 205.268 120.075 207.637 120.399C210.366 120.772 213.067 121.696 215.809 121.425C214.243 120.963 212.651 120.595 211.042 120.32L208.358 119.809C207.638 119.658 206.911 119.546 206.179 119.473C204.648 119.346 203.489 119.75 201.984 119.329Z" fill="#3F3D56"/>
<path d="M204.374 111.023C204.176 111.006 203.93 110.992 203.828 111.162C203.73 111.325 203.842 111.54 203.789 111.722C203.717 111.971 203.39 112.035 203.133 112.001C202.875 111.967 202.597 111.886 202.368 112.01C202.253 112.089 202.166 112.203 202.12 112.335C202.075 112.468 202.074 112.611 202.118 112.744C202.211 113.008 202.362 113.249 202.56 113.447C202.897 113.872 203.282 114.257 203.706 114.595C204.527 115.2 205.639 115.491 206.157 116.37C206.23 116.54 206.342 116.691 206.484 116.809C206.732 116.966 207.056 116.847 207.323 116.725L208.26 116.298C208.429 116.237 208.58 116.135 208.698 116C208.912 115.71 208.781 115.298 208.601 114.986C208.422 114.673 208.192 114.35 208.23 113.992C208.299 113.354 209.121 113.109 209.459 112.563C209.8 112.012 209.578 111.303 209.618 110.657C209.664 109.901 210.139 108.918 209.374 108.354C208.724 107.874 208.102 108.317 207.635 108.847C206.65 109.964 206.185 111.174 204.374 111.023Z" fill="#3F3D56"/>
<path d="M210.064 99.7313C210.383 100.343 211.05 100.708 211.399 101.303C211.777 101.948 211.734 102.782 212.144 103.408C212.565 104.05 213.412 104.39 213.648 105.12C213.906 105.917 213.321 106.886 213.787 107.582C213.874 107.696 213.984 107.791 214.109 107.86C214.235 107.929 214.373 107.972 214.516 107.985C214.659 107.998 214.803 107.981 214.939 107.936C215.075 107.891 215.2 107.818 215.306 107.722C215.503 107.508 215.608 107.226 215.599 106.936C215.591 106.647 215.469 106.372 215.26 106.17C214.984 105.919 214.588 105.81 214.358 105.517C214.238 105.348 214.158 105.154 214.124 104.949C213.998 104.359 214.018 103.747 214.182 103.166C214.244 103.019 214.26 102.857 214.227 102.7C214.124 102.399 213.715 102.378 213.429 102.238C212.778 101.921 212.794 101.005 212.908 100.291C212.832 100.766 211.136 99.9577 210.958 99.6885C210.606 99.1538 210.798 98.1222 210.728 97.5312C209.966 97.8976 209.672 98.9838 210.064 99.7313Z" fill="#3F3D56"/>
<path d="M192.975 109.141C192.662 108.791 192.191 108.425 191.771 108.636C191.451 108.797 191.363 109.239 191.488 109.575C191.641 109.9 191.877 110.18 192.171 110.387C193.046 111.107 193.988 111.757 194.751 112.594C196.116 114.092 196.839 116.113 198.324 117.492C198.623 117.812 199.018 118.026 199.449 118.1C199.882 118.14 200.368 117.864 200.417 117.433C200.458 117.078 200.211 116.761 199.968 116.498C199.391 115.871 198.76 115.295 198.215 114.64C197.964 114.389 197.806 114.06 197.767 113.706C197.765 113.354 198.087 112.985 198.429 113.072C198.013 112.966 197.704 112.275 197.094 112.145C196.583 112.036 196.46 112.351 195.853 112.091C194.695 111.596 193.786 110.047 192.975 109.141Z" fill="#3F3D56"/>
<path d="M220.184 75.0827C219.852 74.9842 219.526 74.8677 219.206 74.7339C218.346 74.4763 217.209 75.1071 217.323 75.9958C217.399 76.5863 217.95 76.9845 218.254 77.4967C218.705 78.2562 218.585 79.2197 218.348 80.0703C218.29 80.3337 218.179 80.5827 218.022 80.8026C217.804 81.0347 217.542 81.2225 217.252 81.3558C216.091 82.0057 215.067 82.8741 214.237 83.9128C214.146 84.0087 214.084 84.127 214.055 84.2554C214.014 84.5555 214.316 84.7741 214.487 85.0244C214.866 85.5803 214.592 86.3284 214.629 87.0001C214.624 87.0951 214.642 87.1899 214.683 87.2757C214.725 87.3615 214.787 87.4353 214.865 87.4902C215.094 87.6062 215.365 87.4092 215.489 87.1849C215.9 86.4409 215.59 85.2466 216.362 84.8879C216.508 84.82 216.685 84.7914 216.783 84.6634C216.937 84.4603 216.788 84.1596 216.866 83.9169C216.984 83.5524 217.483 83.5361 217.866 83.5522C218.527 83.5798 219.187 83.4921 219.817 83.2931C220.064 83.2344 220.288 83.1047 220.462 82.92C220.693 82.6325 220.672 82.2239 220.626 81.8585C220.395 80.0367 219.817 78.2759 218.923 76.671C219.601 76.7575 220.339 76.8324 220.924 76.4797C221.251 76.2822 221.644 75.6916 221.482 75.2896C221.225 74.6539 220.761 75.189 220.184 75.0827Z" fill="#3F3D56"/>
<path d="M133.271 85.1007C133.352 85.5351 133.431 85.9924 133.289 86.4107C133.146 86.829 132.698 87.1785 132.274 87.0504C131.945 86.9509 131.755 86.6209 131.522 86.3694C130.224 84.9704 127.294 85.7803 126.492 84.0495C126.165 83.3431 126.388 82.4969 126.164 81.7512C126.023 81.3202 125.743 80.9481 125.368 80.6934C124.992 80.4387 124.542 80.3157 124.089 80.3438C123.675 80.4034 123.273 80.5233 122.895 80.6997C120.359 81.7133 117.697 82.378 114.981 82.6752C114.465 82.7066 113.955 82.7993 113.461 82.9514C112.346 83.3548 111.584 84.3865 111.042 85.4394C110.5 86.4922 110.1 87.632 109.373 88.5673C108.609 89.5503 107.539 90.2387 106.54 90.9833C106.156 91.2307 105.835 91.5658 105.606 91.9609C105.389 92.4045 105.402 92.9205 105.418 93.4136L105.622 99.4029C105.649 100.173 105.682 100.971 106.027 101.661C106.458 102.521 107.311 103.085 107.902 103.846C108.505 104.627 108.819 105.593 108.791 106.579C108.779 106.976 108.739 107.445 109.049 107.694C109.237 107.815 109.457 107.879 109.681 107.875L117.798 108.538C119.225 108.655 120.808 108.847 121.74 109.933C122.18 110.445 122.533 111.182 123.207 111.237C123.496 111.26 123.777 111.142 124.066 111.119C124.796 111.061 125.437 111.614 125.841 112.223C126.453 113.15 126.731 114.258 126.629 115.364C126.562 116.059 126.347 116.734 126.3 117.429C126.123 120.077 128.372 122.378 128.416 125.031C128.441 126.592 127.699 128.05 126.975 129.434C128.143 131.2 127.187 133.552 127.652 135.617C128.093 137.576 129.729 139.109 130.137 141.076C130.324 141.976 130.335 143.083 131.13 143.547C131.479 143.717 131.865 143.794 132.253 143.771C134.59 143.799 136.901 143.274 138.996 142.239C139.979 141.752 140.998 141.025 141.169 139.943C141.308 139.07 140.865 138.094 141.316 137.334C141.848 136.438 143.21 136.509 143.992 135.82C145.262 134.703 144.272 132.572 144.786 130.962C145.248 129.516 146.84 128.747 147.628 127.449C147.939 126.89 148.162 126.288 148.289 125.662C148.65 124.166 148.875 122.641 148.961 121.104C148.982 120.171 149.051 119.239 149.168 118.313C150.018 113.039 155.241 109.507 156.937 104.441C157.099 103.957 157.175 103.312 156.744 103.038C156.488 102.917 156.198 102.886 155.923 102.953L152.181 103.423C151.717 103.482 151.224 103.537 150.797 103.344C150.37 103.151 150.064 102.612 150.291 102.203C150.926 101.054 149.619 99.6021 149.038 98.4246C147.474 95.254 145.612 92.239 143.476 89.4203C143.339 89.2753 143.254 89.0898 143.232 88.8918L144.294 88.9271C143.936 87.6432 143.344 86.2382 142.094 85.7686C141.39 85.5039 140.611 85.5954 139.859 85.6364C137.707 85.7537 135.4 85.4294 133.271 85.1007Z" fill="#3F3D56"/>
<path d="M139.858 56.1689C140.421 56.7658 141.052 57.3987 141.867 57.5027C143.306 57.6865 144.341 56.2011 144.999 54.9109C145.024 55.2398 145.176 55.5462 145.423 55.765C145.67 55.9839 145.993 56.0977 146.323 56.0825C146.679 56.0228 147.018 55.8905 147.319 55.6939C150.17 54.1386 153.364 53.3145 156.613 53.2957C156.582 53.05 156.643 52.8015 156.785 52.5981C156.926 52.3947 157.138 52.2509 157.38 52.1943C158.04 52.0636 158.635 52.6337 158.954 53.2259C159.273 53.8181 159.471 54.5046 159.978 54.9478C160.484 55.3911 161.464 55.3718 161.664 54.7299C161.856 54.1136 161.213 53.5881 160.679 53.2247C160.144 52.8614 159.581 52.1889 159.941 51.6527C162.671 51.0495 165.418 50.4441 168.211 50.3242C168.687 50.3407 169.161 50.2592 169.603 50.0848C170.029 49.8761 170.368 49.4024 170.253 48.9428C169.644 49.0858 169.005 49.0444 168.419 48.8238C167.833 48.6032 167.327 48.2134 166.964 47.7041C170.84 47.3848 174.962 47.1127 178.397 48.9332C178.81 49.8166 176.709 50.5515 177.271 51.3482C177.45 51.6023 177.809 51.6321 178.121 51.6379C180.508 51.6821 182.909 51.7255 185.269 51.3657C186.131 51.2343 187.003 51.0487 187.869 51.1553C189.311 51.3329 190.545 52.2935 191.964 52.6067C192.541 52.7342 193.189 52.7385 193.675 52.4032C194.162 52.0679 194.372 51.3044 193.973 50.8685C195.309 49.5614 197.526 49.8854 199.289 50.5111C201.051 51.1369 202.721 52.146 204.586 52.2855C205.924 52.3855 207.281 52.0263 208.602 52.2546C209.433 52.3981 210.206 52.7669 211.018 52.9936C212.553 53.4222 214.178 53.3317 215.772 53.3523C219.84 53.407 223.863 54.205 227.642 55.7068C228.134 55.8666 228.585 56.1322 228.962 56.485C229.314 56.8609 229.493 57.4451 229.257 57.9021L225.351 57.3325C225.719 58.0556 226.671 58.1788 227.444 58.4282C228.217 58.6777 229.019 59.5299 228.554 60.1952C227.717 59.929 226.957 60.765 226.534 61.5342C226.111 62.3033 225.596 63.2245 224.718 63.2714C223.932 63.3133 222.981 62.6452 222.468 63.2417C223.176 64.1331 223.783 65.1005 224.276 66.1259C224.782 67.1786 225.143 68.505 224.458 69.4522C224.351 69.6212 224.187 69.7476 223.997 69.8096C223.438 69.9508 223.075 69.2684 222.674 68.8549C222.169 68.3337 221.405 68.1861 220.722 67.9417C220.038 67.6972 219.317 67.2164 219.264 66.4934C219.231 66.0435 219.468 65.6253 219.644 65.2095C219.938 64.5087 220.067 63.7495 220.02 62.9909C219.982 62.3806 219.81 61.7458 219.371 61.3194C218.932 60.893 218.174 60.7577 217.703 61.1483C217.483 61.3305 217.307 61.622 217.021 61.6329C216.516 61.6522 216.129 60.7739 215.723 61.0737C215.77 61.3931 215.704 61.7191 215.535 61.9947C214.324 63.0466 212.462 62.6016 210.9 62.9731C210.157 63.1853 209.446 63.4953 208.786 63.895C208.538 64.0005 208.328 64.1767 208.181 64.4014C207.986 64.7796 208.201 65.264 208.545 65.5155C208.909 65.7386 209.319 65.8782 209.744 65.924C211.648 66.284 213.58 66.8413 215.084 68.0623C216.587 69.2832 217.573 71.3015 217.097 73.1769L213.342 69.5951C213.485 71.099 213.566 72.6071 213.585 74.1193C213.609 74.4146 213.568 74.7116 213.466 74.9895C213.198 75.5798 212.472 75.7784 211.837 75.9087C211.66 75.9423 211.492 76.0128 211.344 76.1156C211.197 76.2185 211.073 76.3513 210.98 76.5054C210.888 76.6596 210.829 76.8315 210.808 77.01C210.786 77.1884 210.803 77.3693 210.857 77.5408C211.083 78.2758 211.646 78.8488 212.162 79.4198C212.678 79.9909 213.185 80.6398 213.253 81.4057C213.32 82.1716 212.741 83.0348 211.973 82.9816C211.391 82.9412 210.958 82.4207 210.71 81.8933C210.461 81.3658 210.314 80.7783 209.94 80.3301C208.81 78.9737 206.273 79.5548 205.26 78.1088C205.002 78.4009 204.823 78.754 204.741 79.1346C204.658 79.5152 204.674 79.9106 204.787 80.2833C205.258 79.989 205.903 80.2624 206.256 80.69C206.61 81.1175 206.777 81.6657 207.055 82.1459C207.43 82.7939 208.026 83.3684 208.079 84.1149C208.065 84.3971 208.07 84.68 208.093 84.9617C208.186 85.414 208.569 85.7387 208.835 86.1168C209.452 86.9965 209.422 88.205 209.024 89.2031C208.625 90.2012 207.91 91.0352 207.201 91.8438C205.963 93.2561 204.7 94.6602 203.233 95.8331C202.814 96.1677 202.367 96.4968 202.106 96.9647C201.846 97.4326 201.832 98.0894 202.233 98.4453C201.946 98.4596 201.432 98.6004 201.145 98.6147C201.044 97.4665 201.023 96.3127 201.08 95.1615C199.948 94.6191 198.73 96.0716 198.876 97.3162C199.022 98.5607 199.923 99.5594 200.566 100.636C201.035 101.424 201.384 102.342 201.227 103.244C201.07 104.147 200.263 104.98 199.349 104.901C197.894 104.774 197.285 102.689 195.845 102.451C195.718 102.421 195.585 102.434 195.466 102.488C195.252 102.606 195.215 102.891 195.203 103.134C195.144 104.328 195.093 105.569 195.56 106.669C196.243 108.279 198.007 109.631 197.637 111.34C195.643 110.415 194.607 108.183 194.136 106.04C193.666 103.897 193.587 101.647 192.744 99.6204C192.103 100.44 190.757 99.7625 190.172 98.9028C189.617 98.0878 189.275 97.145 188.737 96.319C188.199 95.493 187.374 94.7533 186.388 94.7079C185.354 94.6603 184.457 95.3685 183.669 96.0377C183.02 96.5879 182.355 97.1598 181.976 97.9205C181.424 99.0273 181.568 100.332 181.542 101.568C181.513 102.904 181.229 104.314 180.317 105.292C179.405 106.27 177.721 106.611 176.714 105.73C176.189 105.269 175.935 104.582 175.708 103.922C174.616 100.74 173.706 97.4986 172.984 94.2135C172.815 94.9633 172.155 95.9297 171.525 95.488C171.384 95.3693 171.269 95.222 171.189 95.0558C170.014 93.0674 167.837 91.8746 165.638 91.1595C163.438 90.4444 161.125 90.1108 158.95 89.3248C157.731 88.8842 156.567 88.3054 155.48 87.5998C155.203 88.006 155.042 88.4794 155.012 88.9699C154.983 89.4604 155.087 89.9496 155.314 90.3858C155.796 91.2385 156.888 91.7318 157.822 91.4338C158.305 91.2798 158.713 90.9452 159.192 90.7799C159.671 90.6146 160.314 90.6958 160.524 91.1566C160.725 91.5976 160.421 92.1312 160.572 92.5918C160.801 93.2932 161.861 93.3472 162.231 93.9855C162.507 94.4604 162.28 95.091 161.886 95.4742C161.493 95.8574 160.967 96.0676 160.487 96.3344C158.927 97.1999 157.819 98.6774 156.456 99.827C155.093 100.977 153.17 101.816 151.546 101.078C151.933 99.1217 149.598 97.6851 149.169 95.7371C149.027 95.096 149.1 94.4149 148.899 93.7901C148.606 92.8855 147.802 92.2635 147.143 91.578C146.343 90.7375 145.719 89.7455 145.31 88.6607C144.9 87.5758 144.712 86.42 144.757 85.2615C144.793 84.4564 144.941 83.6383 144.757 82.8536C144.573 82.0689 143.923 81.3094 143.116 81.345C141.274 81.4262 138.953 81.5629 137.987 79.9955C137.642 79.4361 137.492 78.6167 137.991 78.1881C138.342 77.8858 138.862 77.9143 139.324 77.9596L143.474 78.3672C144.445 78.4625 145.494 78.5412 146.327 78.0346C147.16 77.528 147.521 76.1834 146.75 75.5874C146.186 75.152 145.176 75.1756 145.013 74.4832C144.876 73.9066 145.516 73.2523 145.17 72.7705C144.923 72.4249 144.366 72.5208 144.029 72.7798C143.691 73.0388 143.447 73.4176 143.069 73.6138C142.407 73.9578 141.615 73.6304 140.903 73.4078C140.19 73.1853 139.235 73.1664 138.889 73.827C138.503 74.5658 139.232 75.5338 138.849 76.2741C138.342 77.2529 136.624 76.6957 135.912 77.5376C135.095 78.5037 136.468 79.9442 136.192 81.1784C135.84 81.3523 135.449 81.4322 135.057 81.4102C134.665 81.3882 134.286 81.2651 133.955 81.0529C133.631 80.8324 133.372 80.5282 133.207 80.1727C133.041 79.8171 132.976 79.4234 133.016 79.0336C133.085 78.4784 133.375 77.9117 133.18 77.387C133.023 76.9628 132.597 76.7103 132.2 76.4916L128.167 74.2668C127.792 74.9602 128.266 75.8198 128.858 76.3407C129.45 76.8615 130.191 77.2537 130.58 77.9391C130.826 78.414 130.882 78.9647 130.735 79.4788C130.588 79.9929 130.25 80.4316 129.789 80.7053C129.732 80.745 129.666 80.7718 129.597 80.7838C129.528 80.7958 129.457 80.7928 129.39 80.7749C129.325 80.7371 129.269 80.6869 129.225 80.6271C129.18 80.5673 129.148 80.4992 129.13 80.4268C128.419 78.609 127.35 76.8167 125.642 75.8671C123.934 74.9175 121.479 75.1128 120.359 76.7124C120.093 77.0924 119.915 77.5255 119.683 77.9272C118.451 80.0613 115.811 81.072 113.345 81.006C113.104 81.0193 112.864 80.963 112.654 80.8438C112.255 80.569 112.273 79.9859 112.334 79.5062L112.593 77.4704C112.645 77.0616 112.72 76.6097 113.044 76.3545C113.501 75.9948 114.16 76.2218 114.742 76.2134C115.183 76.1928 115.607 76.0374 115.956 75.7683C116.306 75.4991 116.564 75.1293 116.695 74.7088C116.813 74.2842 116.812 73.8357 116.693 73.4115C116.574 72.9873 116.342 72.6035 116.02 72.3015C115.754 72.0515 115.396 71.7374 115.537 71.4004C115.593 71.3071 115.669 71.2273 115.759 71.1665C115.85 71.1057 115.952 71.0655 116.06 71.0485C117.105 70.7456 118.21 70.6661 119.237 70.3087C120.265 69.9512 121.262 69.2198 121.505 68.1609C121.58 67.8364 121.614 67.4433 121.906 67.2824C122.052 67.2206 122.21 67.1885 122.369 67.188C122.926 67.1088 123.433 66.8244 123.791 66.3905C124.149 65.9567 124.33 65.405 124.301 64.8439C124.794 64.5004 125.484 64.7531 125.96 65.1185C126.437 65.4839 126.857 65.9667 127.437 66.1242C128.518 66.4178 129.562 65.4628 130.682 65.4584C131.153 65.4565 131.64 65.6227 132.083 65.4634C132.532 65.3018 132.801 64.8555 133.145 64.5258C133.49 64.1961 134.095 63.995 134.413 64.3502L134.142 62.3461C134.688 62.4838 135.257 62.5033 135.811 62.4033C136.365 62.3033 136.891 62.0862 137.354 61.7665L133.851 60.585C133.729 60.5546 133.617 60.4945 133.524 60.4102C133.269 60.1364 133.522 59.7098 133.729 59.3987C134.224 58.6542 134.308 57.428 133.493 57.0574C132.937 56.8044 132.298 57.1081 131.765 57.4052L129.208 58.8282C129.127 59.3133 129.721 59.5882 130.089 59.915C130.312 60.1127 130.47 60.3731 130.542 60.6619C130.614 60.9507 130.596 61.2544 130.492 61.5332C130.388 61.812 130.201 62.0528 129.958 62.224C129.714 62.3952 129.424 62.4888 129.126 62.4924C129.294 62.7109 129.411 62.9644 129.468 63.2341C129.525 63.5039 129.52 63.7829 129.454 64.0507L127.734 64.1742C127.541 64.2129 127.341 64.1739 127.176 64.0655C126.992 63.9024 127.017 63.6165 126.975 63.3746C126.872 62.7907 126.299 62.3815 125.714 62.2766C125.13 62.1716 124.532 62.3061 123.953 62.4389C123.707 62.5272 123.437 62.521 123.196 62.4215C123.057 62.3317 122.952 62.1992 122.896 62.0441C122.642 61.4299 122.88 60.708 123.287 60.1828C123.695 59.6575 124.253 59.2736 124.754 58.8363C125.952 57.7868 126.833 56.4237 127.296 54.901C128.243 54.505 129.223 53.9668 130.17 53.5708C131.63 52.8329 133.267 52.5162 134.898 52.6564L138.105 52.7176C139.055 52.7357 140.03 52.7589 140.908 53.1202C141.786 53.4815 142.557 54.2631 142.618 55.2091C142.636 55.3162 142.627 55.4262 142.591 55.5287C142.555 55.6313 142.494 55.723 142.412 55.7953C142.288 55.8629 142.148 55.8945 142.007 55.8866C141.121 55.9176 140.744 56.1379 139.858 56.1689Z" fill="#3F3D56"/>
<path d="M114.297 66.2003C114.423 66.0819 114.513 65.9313 114.558 65.7651C114.603 65.5989 114.602 65.4235 114.553 65.2581C114.248 65.1407 113.917 65.1105 113.596 65.1711C113.274 65.2316 112.977 65.3804 112.736 65.6007C112.546 65.7926 112.382 66.0086 112.249 66.2433C111.827 66.9296 111.455 67.7494 111.699 68.5166C111.719 68.6003 111.755 68.6791 111.806 68.7485C111.857 68.8179 111.921 68.8765 111.995 68.9208C112.104 68.9647 112.222 68.9831 112.34 68.9748C112.804 68.9742 113.268 68.9457 113.729 68.8895C114.012 68.8549 114.341 68.7751 114.45 68.5123C114.594 68.1669 114.246 67.7759 114.347 67.4157C114.414 67.2547 114.515 67.1101 114.644 66.9921C114.707 66.9327 114.756 66.8593 114.787 66.7776C114.817 66.696 114.828 66.6085 114.818 66.5219C114.777 66.353 114.518 66.2571 114.425 66.4039" fill="#3F3D56"/>
<path d="M116.703 63.0867C116.29 62.9921 115.865 62.9655 115.444 63.0078C115.351 63.005 115.259 63.0259 115.176 63.0686C115.096 63.1276 115.038 63.2117 115.011 63.3075C114.922 63.5924 114.944 63.9003 115.072 64.1698C115.2 64.4393 115.426 64.6507 115.703 64.7619C115.854 64.7966 115.999 64.8547 116.132 64.9341C116.488 65.2098 116.261 65.7733 116.329 66.2179C116.404 66.7173 116.889 67.1364 116.8 67.6336C116.73 68.0252 116.311 68.3354 116.378 68.7275C116.449 69.1382 116.971 69.2616 117.387 69.2945C117.628 69.3366 117.877 69.3082 118.102 69.2127C118.328 69.0585 118.489 68.8263 118.553 68.5608C118.723 68.0546 118.795 67.5205 118.764 66.9873C118.762 66.7449 118.701 66.5065 118.586 66.2929C118.461 66.1236 118.322 65.9649 118.171 65.8181C117.373 64.8924 118.213 63.5115 116.703 63.0867Z" fill="#3F3D56"/>
<path opacity="0.8" d="M221.552 135.609C221.552 135.609 160.484 100.619 134.194 107.249C134.194 107.249 78.4774 113.234 72.0201 126.401C72.0201 126.401 54.3088 71.1541 47.8516 69.3125" stroke="#6C63FF" stroke-width="2" stroke-miterlimit="10"/>
<path opacity="0.8" d="M72.0201 126.398C82.2595 99.1432 174.506 68.9414 174.506 68.9414C161.407 72.2562 134.194 107.246 134.194 107.246C134.194 107.246 76.6324 65.4424 47.8516 69.3097C47.8516 69.3097 174.598 73.4533 221.552 135.606" stroke="#6C63FF" stroke-width="2" stroke-miterlimit="10"/>
<path d="M47.8509 71.9812C49.3284 71.9812 50.5261 70.7857 50.5261 69.3109C50.5261 67.8362 49.3284 66.6406 47.8509 66.6406C46.3735 66.6406 45.1758 67.8362 45.1758 69.3109C45.1758 70.7857 46.3735 71.9812 47.8509 71.9812Z" fill="#6C63FF"/>
<path d="M72.0189 129.071C73.4963 129.071 74.694 127.876 74.694 126.401C74.694 124.926 73.4963 123.73 72.0189 123.73C70.5414 123.73 69.3438 124.926 69.3438 126.401C69.3438 127.876 70.5414 129.071 72.0189 129.071Z" fill="#6C63FF"/>
<path d="M174.503 71.614C175.981 71.614 177.178 70.4185 177.178 68.9437C177.178 67.469 175.981 66.2734 174.503 66.2734C173.026 66.2734 171.828 67.469 171.828 68.9437C171.828 70.4185 173.026 71.614 174.503 71.614Z" fill="#6C63FF"/>
<path d="M221.55 138.278C223.028 138.278 224.225 137.083 224.225 135.608C224.225 134.133 223.028 132.938 221.55 132.938C220.073 132.938 218.875 134.133 218.875 135.608C218.875 137.083 220.073 138.278 221.55 138.278Z" fill="#6C63FF"/>
<path d="M134.195 109.919C135.672 109.919 136.87 108.723 136.87 107.248C136.87 105.774 135.672 104.578 134.195 104.578C132.717 104.578 131.52 105.774 131.52 107.248C131.52 108.723 132.717 109.919 134.195 109.919Z" fill="#6C63FF"/>
</g>
<defs>
<clipPath id="clip0">
<rect width="263" height="195" fill="white"/>
</clipPath>
</defs>
</svg>
