<svg width="120" height="156" viewBox="0 0 120 156" fill="none" xmlns="http://www.w3.org/2000/svg">
<path d="M105.006 53.9972H95.992V36.4867C95.992 16.7275 80.2395 0.301375 60.4823 0.00199311C55.7182 -0.048066 50.9912 0.845298 46.5739 2.6306C42.1565 4.4159 38.1361 7.05785 34.7444 10.4042C31.3526 13.7505 28.6566 17.735 26.8117 22.1282C24.9667 26.5213 24.0093 31.2362 23.9946 36.001V53.9972H15.0008C11.0261 54.0095 7.21774 55.594 4.4072 58.4049C1.59666 61.2157 0.0122812 65.0245 0 68.9996V140.998C0.0122812 144.973 1.59666 148.782 4.4072 151.592C7.21774 154.403 11.0261 155.988 15.0008 156H105.006C108.98 155.988 112.788 154.403 115.597 151.592C118.407 148.781 119.989 144.972 120 140.998V68.9996C119.989 65.0251 118.407 61.2163 115.597 58.4053C112.788 55.5943 108.98 54.0095 105.006 53.9972ZM65.2586 100.801V126.587C65.2673 127.953 64.7568 129.27 63.8304 130.274C62.904 131.277 61.6311 131.89 60.2694 131.99C59.5585 132.023 58.8483 131.912 58.1817 131.662C57.515 131.413 56.9058 131.032 56.3909 130.54C55.876 130.049 55.4661 129.458 55.186 128.804C54.9059 128.15 54.7614 127.445 54.7613 126.734V100.787C52.3277 99.6004 50.3682 97.6236 49.2025 95.1796C48.0368 92.7356 47.7337 89.9686 48.3427 87.3302C48.9518 84.6917 50.4369 82.3376 52.5559 80.6519C54.6748 78.9662 57.3024 78.0485 60.01 78.0485C62.7175 78.0485 65.3452 78.9662 67.4641 80.6519C69.5831 82.3376 71.0682 84.6917 71.6772 87.3302C72.2862 89.9686 71.9831 92.7356 70.8174 95.1796C69.6517 97.6236 67.6922 99.6004 65.2586 100.787V100.801ZM85.5081 53.9972H34.4919V36.001C34.4919 29.2378 37.1783 22.7516 41.9602 17.9693C46.742 13.187 53.2275 10.5003 59.99 10.5003C66.7525 10.5003 73.2381 13.187 78.0199 17.9693C82.8017 22.7516 85.4881 29.2378 85.4881 36.001L85.5081 53.9972Z" fill="#2862BC"/>
</svg>
