<svg width="20" height="30" viewBox="0 0 20 30" fill="none" xmlns="http://www.w3.org/2000/svg">
    <path d="M18.1452 4.54332C17.6583 2.13561 15.7666 0.425182 12.9156 0.123916C12.1584 0.0437386 11.4037 0 10.6587 0H10.476H10.2935C9.54846 0 8.79619 0.0437386 8.03654 0.123916C5.19041 0.425182 3.2963 2.13317 2.8094 4.54332C2.51474 6.00592 2.52212 7.48315 2.50021 8.9603C2.49282 9.42916 2.68035 9.59199 3.25248 9.55797H8.1047C8.38955 9.55797 8.61848 9.3345 8.61351 9.05994L8.7037 7.21827L8.73288 6.64978C8.73288 4.54331 12.3508 4.54331 12.3508 6.64978L12.3459 7.98361L12.341 9.05994C12.3361 9.3345 12.565 9.55797 12.8499 9.55797H17.7021C18.2718 9.59199 18.4618 9.42916 18.4544 8.9603C18.4325 7.48315 18.4423 6.0035 18.1452 4.54332Z"/>
    <path d="M19.79 16.1738C19.6536 15.0513 19.3468 13.9118 18.8478 12.8574C18.8356 12.8332 18.8234 12.8088 18.8113 12.7845C18.4168 11.8491 17.9177 11.1908 16.3547 10.9089C16.1746 10.8651 15.9846 10.8311 15.785 10.8069C15.1495 10.7315 13.0436 10.6805 11.052 10.6465H8.94847C6.95448 10.6805 4.85094 10.7315 4.2155 10.8069C4.01829 10.8311 3.82834 10.8651 3.64578 10.9089C2.08035 11.1908 1.58364 11.8491 1.18923 12.7845C1.177 12.8088 1.16247 12.8332 1.15267 12.8574C0.653657 13.9118 0.349311 15.0513 0.210455 16.1738C0.0206326 17.7262 -0.0621735 19.3006 0.0522285 20.858C0.176436 22.532 0.909215 24.0724 2.70115 25.1753C2.79606 25.2337 2.89594 25.2823 2.99823 25.3188C3.34386 25.4791 3.77484 25.5982 4.23983 25.7075C4.3397 25.7317 4.4443 25.7536 4.5466 25.7755H4.54417C4.9605 25.9237 6.66721 26.1351 7.19067 26.83C7.42928 27.1045 7.52177 27.4592 7.50713 27.9087C7.50713 27.9257 7.5047 27.9451 7.50228 27.9621L7.37807 28.9849C7.34164 29.279 7.57286 29.5389 7.86994 29.5389C8.05008 29.5389 8.21811 29.4417 8.30334 29.2838C8.59304 28.7566 8.85356 28.2682 9.11892 27.8358C10.4409 25.6224 12.9632 26.2396 15.4563 25.7731H15.4539C15.5561 25.7512 15.6608 25.7293 15.7607 25.7051C16.2232 25.5982 16.6566 25.4766 17.0023 25.3162C17.107 25.2774 17.2068 25.2313 17.2993 25.1729C19.0937 24.0724 19.8265 22.5296 19.9483 20.8556C20.0627 19.3006 19.9774 17.7238 19.79 16.1738Z"/>
</svg>
