<svg width="185" height="191" viewBox="0 0 185 191" fill="none" xmlns="http://www.w3.org/2000/svg">
    <path d="M115.956 37.9539C114.105 28.8223 106.914 22.3352 96.0764 21.1926C93.1979 20.8885 90.329 20.7227 87.497 20.7227H86.8025H86.1085C83.2765 20.7227 80.4168 20.8885 77.529 21.1926C66.7098 22.3352 59.5095 28.8131 57.6586 37.9539C56.5384 43.5011 56.5665 49.1037 56.4832 54.7061C56.4551 56.4843 57.168 57.1019 59.3429 56.9729H77.7881C78.871 56.9729 79.7412 56.1253 79.7223 55.084L80.0652 48.0992L80.1761 45.9431C80.1761 37.9539 93.9291 37.9539 93.9291 45.9431L93.9107 51.0018L93.8919 55.084C93.8735 56.1253 94.7437 56.9729 95.8266 56.9729H114.272C116.437 57.1019 117.16 56.4843 117.131 54.7061C117.048 49.1037 117.085 43.4919 115.956 37.9539Z" fill="white"/>
    <path d="M125.574 82.0647C125.055 77.8076 123.889 73.4858 121.992 69.4867C121.945 69.3949 121.899 69.3026 121.853 69.2103C120.354 65.6626 118.456 63.1658 112.515 62.097C111.83 61.9308 111.108 61.8017 110.349 61.7099C107.933 61.4239 99.9276 61.2306 92.3569 61.1016H84.3605C76.7805 61.2306 68.7841 61.4239 66.3685 61.7099C65.6189 61.8017 64.8968 61.9308 64.2028 62.097C58.252 63.1658 56.3638 65.6626 54.8645 69.2103C54.818 69.3026 54.7628 69.3949 54.7255 69.4867C52.8286 73.4858 51.6716 77.8076 51.1438 82.0647C50.4222 87.9527 50.1074 93.9237 50.5423 99.8305C51.0145 106.179 53.8 112.021 60.6119 116.205C60.9727 116.426 61.3524 116.61 61.7412 116.749C63.0551 117.357 64.6934 117.808 66.461 118.223C66.8407 118.315 67.2383 118.398 67.6272 118.481H67.618C69.2006 119.043 75.6885 119.845 77.6784 122.48C78.5854 123.521 78.937 124.867 78.8813 126.571C78.8813 126.636 78.8721 126.71 78.8629 126.774L78.3908 130.653C78.2523 131.768 79.1312 132.754 80.2606 132.754C80.9453 132.754 81.5841 132.385 81.9081 131.787C83.0093 129.787 83.9997 127.935 85.0084 126.295C90.0338 117.9 99.6221 120.241 109.099 118.472H109.09C109.479 118.389 109.877 118.306 110.256 118.214C112.015 117.808 113.662 117.347 114.976 116.739C115.374 116.592 115.754 116.417 116.105 116.195C122.927 112.021 125.712 106.17 126.175 99.8213C126.61 93.9237 126.286 87.9435 125.574 82.0647Z" fill="white"/>
    <path d="M21.684 143.95C21.2768 143.95 20.9529 144.024 20.7122 144.172C20.4716 144.319 20.342 144.512 20.342 144.752C20.342 145.112 20.6012 145.406 21.1195 145.646C21.6377 145.885 22.4985 146.162 23.7109 146.494C25.4138 146.964 26.8669 147.461 28.07 147.959C29.2825 148.466 30.3375 149.231 31.2445 150.272C32.1515 151.313 32.605 152.658 32.605 154.317C32.605 155.976 32.17 157.432 31.2908 158.675C30.4116 159.919 29.1621 160.887 27.5518 161.56C25.9414 162.241 24.0533 162.582 21.8876 162.582C17.982 162.582 14.5113 161.67 11.4942 159.855C10.8463 159.468 10.5779 158.639 10.9111 157.938L12.6325 154.289C12.9843 153.552 13.8635 153.248 14.5669 153.644C17.2416 155.155 19.7312 155.902 22.0265 155.902C22.4892 155.902 22.8502 155.837 23.1093 155.699C23.3685 155.561 23.498 155.395 23.498 155.183C23.498 154.86 23.2481 154.584 22.7391 154.363C22.2301 154.142 21.4249 153.884 20.2958 153.589C18.5928 153.147 17.1583 152.668 15.9736 152.17C14.789 151.663 13.7524 150.898 12.8454 149.857C11.9384 148.816 11.4849 147.452 11.4849 145.766C11.4849 144.08 11.9199 142.605 12.7806 141.343C13.6414 140.08 14.863 139.103 16.4364 138.412C18.0098 137.721 19.8237 137.371 21.9061 137.371C25.2102 137.371 28.431 138.154 31.5592 139.721C32.2903 140.09 32.5958 140.993 32.2163 141.73L30.3283 145.388C29.9766 146.061 29.1714 146.346 28.4958 146.024C25.5527 144.641 23.2852 143.95 21.684 143.95Z" fill="white"/>
    <path d="M54.716 139.022C56.6134 140.118 58.0759 141.694 59.0754 143.731C60.0842 145.767 60.584 148.153 60.584 150.89C60.584 151.452 60.5651 151.885 60.5375 152.18H46.1457C45.6646 152.18 45.3407 152.724 45.5813 153.148C45.8682 153.636 46.2198 154.032 46.6455 154.346C47.3215 154.834 48.1356 155.083 49.0891 155.083C50.6253 155.083 52.0689 154.493 53.4389 153.304C53.6888 153.083 54.068 153.083 54.2995 153.323L58.4827 157.571C58.7326 157.82 58.7422 158.243 58.5016 158.501C57.3262 159.727 55.9286 160.676 54.3368 161.349C52.5319 162.104 50.4959 162.482 48.2189 162.482C45.572 162.482 43.2768 161.966 41.324 160.943C39.3804 159.921 37.8996 158.465 36.8723 156.594C35.845 154.724 35.3359 152.53 35.3359 150.033C35.3359 147.472 35.8542 145.242 36.8908 143.344C37.9274 141.436 39.3989 139.971 41.324 138.93C43.2398 137.889 45.4517 137.363 47.9598 137.363C50.5696 137.372 52.8186 137.925 54.716 139.022ZM50.1163 145.048C49.6538 144.477 49.0707 144.154 48.3763 144.08C47.4232 143.979 46.4605 144.431 45.8775 145.223C45.5813 145.629 45.3407 146.108 45.1648 146.67C45.026 147.094 45.3314 147.545 45.7664 147.545H50.172C50.5512 147.545 50.8475 147.204 50.8103 146.817C50.755 146.126 50.5144 145.536 50.1163 145.048Z" fill="white"/>
    <path d="M165.813 143.278C164.721 141.389 163.166 139.933 161.149 138.91C159.131 137.887 156.789 137.371 154.106 137.371C151.422 137.371 149.08 137.887 147.063 138.91C145.045 139.933 143.49 141.389 142.398 143.278C141.306 145.167 140.76 147.378 140.76 149.903C140.76 152.428 141.306 154.639 142.398 156.528C143.49 158.417 145.045 159.882 147.063 160.924C149.08 161.965 151.422 162.481 154.106 162.481C156.789 162.481 159.131 161.965 161.149 160.924C163.166 159.882 164.721 158.417 165.813 156.528C166.906 154.639 167.451 152.428 167.451 149.903C167.451 147.378 166.906 145.167 165.813 143.278ZM156.669 153.478C156.17 154.142 155.55 154.547 154.809 154.704C153.439 154.989 151.968 154.298 151.255 153.064C150.793 152.262 150.561 151.258 150.561 150.051C150.561 148.843 150.793 147.839 151.255 147.037C151.968 145.793 153.43 145.112 154.8 145.388C155.55 145.535 156.17 145.95 156.679 146.613C157.326 147.479 157.65 148.622 157.65 150.051C157.641 151.47 157.317 152.612 156.669 153.478Z" fill="white"/>
    <path d="M86.9231 137.74C86.8582 137.731 86.7933 137.721 86.7192 137.721H80.0648C80.0003 137.721 79.9262 137.731 79.8614 137.74H78.547V139.27V139.979C77.0201 138.237 74.9934 137.371 72.4572 137.371C70.6155 137.371 68.968 137.841 67.5059 138.79C66.0526 139.73 64.9238 141.066 64.1184 142.789C63.3131 144.512 62.9062 146.512 62.9062 148.779C62.9062 151.11 63.3227 153.156 64.1557 154.925C64.9886 156.694 66.1451 158.058 67.6352 159.017C69.1162 159.975 70.7821 160.454 72.6238 160.454C75.0578 160.454 77.0201 159.606 78.5194 157.92C78.5286 157.91 78.547 157.92 78.547 157.929V160.131C78.547 160.684 78.4361 161.246 78.1213 161.698C77.409 162.73 76.0762 163.246 74.1323 163.246C72.9754 163.246 71.7448 163.052 70.4213 162.674C69.6624 162.453 68.9588 162.195 68.3108 161.891C67.5243 161.522 66.5989 161.845 66.2284 162.647L64.47 166.48C64.1184 167.245 64.3959 168.176 65.1272 168.572C66.1916 169.143 67.4226 169.641 68.8106 170.056C70.7821 170.645 72.8553 170.94 75.0118 170.94C77.6032 170.94 79.8982 170.488 81.9069 169.595C83.906 168.691 85.4606 167.411 86.5715 165.752C87.682 164.084 88.2374 162.149 88.2374 159.938V144.752V139.306V137.777H86.9231V137.74ZM77.9087 151.774C77.2051 152.981 75.743 153.626 74.4287 153.257C73.8272 153.091 73.3182 152.732 72.8921 152.17C72.2906 151.377 71.9855 150.327 71.9855 149.028C71.9855 147.701 72.2814 146.641 72.8737 145.849C73.466 145.056 74.2621 144.66 75.2709 144.66C76.2796 144.66 77.0758 145.056 77.6681 145.849C78.2603 146.641 78.5562 147.71 78.5562 149.028C78.5562 150.124 78.3436 151.036 77.9087 151.774Z" fill="white"/>
    <path d="M107.388 137.741V147.49L107.452 147.471V150.254C107.452 151.397 107.193 152.319 106.675 153.01C106.157 153.701 105.453 154.042 104.556 154.042C103.778 154.042 103.149 153.747 102.677 153.157C102.205 152.567 101.964 151.784 101.964 150.817V142.652V139.483V137.732H92.2461V139.483V146.384V153.609C92.2461 155.387 92.5977 156.954 93.3013 158.299C94.0045 159.644 94.9765 160.695 96.2167 161.441C97.4569 162.187 98.8822 162.556 100.492 162.556C101.992 162.556 103.334 162.243 104.509 161.607C105.046 161.321 105.537 160.98 105.981 160.575C106.545 160.068 107.443 160.483 107.443 161.238C107.443 161.727 107.841 162.123 108.331 162.123H116.281C116.772 162.123 117.17 161.727 117.17 161.238V145.343V139.473V137.723H107.388V137.741Z" fill="white"/>
    <path d="M138.614 137.372C137.503 137.5 136.485 137.832 135.55 138.358C135.005 138.671 134.496 139.039 134.023 139.472C133.413 140.026 132.459 139.574 132.459 138.735C132.459 138.505 132.367 138.302 132.237 138.136V137.74H122.732V138.735V149.6V161.164C122.732 161.707 123.158 162.14 123.676 162.14H131.506C132.033 162.14 132.45 161.698 132.45 161.164V150.512C132.45 149.175 132.922 148.125 133.875 147.369C134.829 146.614 136.133 146.236 137.809 146.236C138.096 146.236 138.392 146.245 138.688 146.264C139.225 146.301 139.669 145.84 139.669 145.287V138.358C139.669 137.768 139.179 137.316 138.614 137.372Z" fill="white"/>
    <path d="M167.332 158.988H170.266V159.661H169.35C169.266 159.661 169.192 159.735 169.192 159.818V162.49H168.396V159.818C168.396 159.735 168.322 159.661 168.239 159.661H167.332V158.988Z" fill="white"/>
    <path d="M170.701 158.988H171.515C171.552 158.988 171.589 159.007 171.608 159.044L172.58 160.951C172.616 161.025 172.727 161.025 172.765 160.951L173.727 159.044C173.746 159.007 173.783 158.988 173.82 158.988H174.634V162.49H173.922V160.122L172.922 162.131H172.413L171.404 160.122V162.49H170.691L170.701 158.988Z" fill="white"/>
</svg>
